<svg width="18" height="18" viewBox="0 0 18 18" fill="none" xmlns="http://www.w3.org/2000/svg">
<path d="M17.125 8.75041C17.125 8.25313 16.9275 7.77621 16.5758 7.42458C16.2242 7.07295 15.7473 6.87541 15.25 6.87541H9.625V6.17228C10.1615 6.03294 10.6365 5.7196 10.9758 5.28134C11.3151 4.84308 11.4995 4.30466 11.5 3.75041C11.5 1.56291 9.43437 0.163687 9.34688 0.105094C9.24417 0.0365692 9.12347 0 9 0C8.87653 0 8.75583 0.0365692 8.65312 0.105094C8.56562 0.163687 6.5 1.56291 6.5 3.75041C6.50052 4.30466 6.68487 4.84308 7.02417 5.28134C7.36347 5.7196 7.83855 6.03294 8.375 6.17228V6.87541H2.75C2.25272 6.87541 1.77581 7.07295 1.42417 7.42458C1.07254 7.77621 0.875 8.25313 0.875 8.75041V10.5731C0.875641 11.2549 1.09468 11.9186 1.5 12.4668V15.6254C1.5 16.1227 1.69754 16.5996 2.04917 16.9512C2.40081 17.3029 2.87772 17.5004 3.375 17.5004H14.625C15.1223 17.5004 15.5992 17.3029 15.9508 16.9512C16.3025 16.5996 16.5 16.1227 16.5 15.6254V12.4668C16.9053 11.9186 17.1244 11.2549 17.125 10.5731V8.75041ZM7.75 3.75041C7.75 2.69025 8.53125 1.83947 9 1.42306C9.46875 1.83947 10.25 2.69025 10.25 3.75041C10.25 4.08193 10.1183 4.39987 9.88388 4.63429C9.64946 4.86871 9.33152 5.00041 9 5.00041C8.66848 5.00041 8.35054 4.86871 8.11612 4.63429C7.8817 4.39987 7.75 4.08193 7.75 3.75041ZM2.125 8.75041C2.125 8.58465 2.19085 8.42567 2.30806 8.30846C2.42527 8.19125 2.58424 8.12541 2.75 8.12541H15.25C15.4158 8.12541 15.5747 8.19125 15.6919 8.30846C15.8092 8.42567 15.875 8.58465 15.875 8.75041V10.5731C15.875 11.6082 15.0578 12.4723 14.0531 12.4996C13.8025 12.5067 13.5531 12.4635 13.3194 12.3725C13.0858 12.2815 12.8729 12.1446 12.6931 11.9699C12.5133 11.7951 12.3704 11.5861 12.2729 11.3552C12.1753 11.1243 12.125 10.8761 12.125 10.6254C12.125 10.4596 12.0592 10.3007 11.9419 10.1835C11.8247 10.0663 11.6658 10.0004 11.5 10.0004C11.3342 10.0004 11.1753 10.0663 11.0581 10.1835C10.9408 10.3007 10.875 10.4596 10.875 10.6254C10.875 11.1227 10.6775 11.5996 10.3258 11.9512C9.97419 12.3029 9.49728 12.5004 9 12.5004C8.50272 12.5004 8.02581 12.3029 7.67417 11.9512C7.32254 11.5996 7.125 11.1227 7.125 10.6254C7.125 10.4596 7.05915 10.3007 6.94194 10.1835C6.82473 10.0663 6.66576 10.0004 6.5 10.0004C6.33424 10.0004 6.17527 10.0663 6.05806 10.1835C5.94085 10.3007 5.875 10.4596 5.875 10.6254C5.8751 10.8762 5.8249 11.1244 5.72737 11.3554C5.62983 11.5864 5.48695 11.7956 5.30718 11.9704C5.1274 12.1452 4.91438 12.2822 4.68073 12.3732C4.44708 12.4643 4.19754 12.5075 3.94688 12.5004C2.94219 12.4723 2.125 11.6082 2.125 10.5731V8.75041ZM14.625 16.2504H3.375C3.20924 16.2504 3.05027 16.1846 2.93306 16.0673C2.81585 15.9501 2.75 15.7912 2.75 15.6254V13.4817C3.11585 13.6474 3.51101 13.7388 3.9125 13.7504C4.3302 13.7634 4.74621 13.6918 5.13555 13.54C5.52488 13.3881 5.87951 13.1592 6.17812 12.8668C6.29472 12.7532 6.40233 12.6307 6.5 12.5004C6.79108 12.8885 7.16853 13.2035 7.60246 13.4205C8.03638 13.6375 8.51486 13.7504 9 13.7504C9.48514 13.7504 9.96362 13.6375 10.3975 13.4205C10.8315 13.2035 11.2089 12.8885 11.5 12.5004C11.598 12.6302 11.7059 12.7521 11.8227 12.8652C12.4041 13.4347 13.1862 13.7527 14 13.7504C14.0297 13.7504 14.0594 13.7504 14.0891 13.7504C14.49 13.7386 14.8846 13.6472 15.25 13.4817V15.6254C15.25 15.7912 15.1842 15.9501 15.0669 16.0673C14.9497 16.1846 14.7908 16.2504 14.625 16.2504Z" fill="#B1B1B1"/>
</svg>
