<svg width="14" height="15" viewBox="0 0 14 15" fill="none" xmlns="http://www.w3.org/2000/svg">
<path d="M12.625 1.25H10.9375V0.6875C10.9375 0.538316 10.8782 0.395242 10.7727 0.289752C10.6673 0.184263 10.5242 0.125 10.375 0.125C10.2258 0.125 10.0827 0.184263 9.97725 0.289752C9.87176 0.395242 9.8125 0.538316 9.8125 0.6875V1.25H4.1875V0.6875C4.1875 0.538316 4.12824 0.395242 4.02275 0.289752C3.91726 0.184263 3.77418 0.125 3.625 0.125C3.47582 0.125 3.33274 0.184263 3.22725 0.289752C3.12176 0.395242 3.0625 0.538316 3.0625 0.6875V1.25H1.375C1.07663 1.25 0.790483 1.36853 0.579505 1.5795C0.368526 1.79048 0.25 2.07663 0.25 2.375V13.625C0.25 13.9234 0.368526 14.2095 0.579505 14.4205C0.790483 14.6315 1.07663 14.75 1.375 14.75H12.625C12.9234 14.75 13.2095 14.6315 13.4205 14.4205C13.6315 14.2095 13.75 13.9234 13.75 13.625V2.375C13.75 2.07663 13.6315 1.79048 13.4205 1.5795C13.2095 1.36853 12.9234 1.25 12.625 1.25ZM3.0625 2.375V2.9375C3.0625 3.08668 3.12176 3.22976 3.22725 3.33525C3.33274 3.44074 3.47582 3.5 3.625 3.5C3.77418 3.5 3.91726 3.44074 4.02275 3.33525C4.12824 3.22976 4.1875 3.08668 4.1875 2.9375V2.375H9.8125V2.9375C9.8125 3.08668 9.87176 3.22976 9.97725 3.33525C10.0827 3.44074 10.2258 3.5 10.375 3.5C10.5242 3.5 10.6673 3.44074 10.7727 3.33525C10.8782 3.22976 10.9375 3.08668 10.9375 2.9375V2.375H12.625V4.625H1.375V2.375H3.0625ZM12.625 13.625H1.375V5.75H12.625V13.625Z" fill="#B1B1B1"/>
</svg>
