<svg width="20" height="20" viewBox="0 0 20 20" fill="none" xmlns="http://www.w3.org/2000/svg">
<path d="M16.6923 7.94217L10.4423 14.1922C10.3842 14.2503 10.3153 14.2964 10.2394 14.3278C10.1636 14.3593 10.0822 14.3755 10.0001 14.3755C9.91797 14.3755 9.83664 14.3593 9.76077 14.3278C9.68489 14.2964 9.61596 14.2503 9.55792 14.1922L3.30792 7.94217C3.19064 7.82489 3.12476 7.66583 3.12476 7.49998C3.12476 7.33413 3.19064 7.17507 3.30792 7.05779C3.42519 6.94052 3.58425 6.87463 3.7501 6.87463C3.91596 6.87463 4.07502 6.94052 4.19229 7.05779L10.0001 12.8664L15.8079 7.05779C15.866 6.99972 15.9349 6.95366 16.0108 6.92224C16.0867 6.89081 16.168 6.87463 16.2501 6.87463C16.3322 6.87463 16.4135 6.89081 16.4894 6.92224C16.5653 6.95366 16.6342 6.99972 16.6923 7.05779C16.7504 7.11586 16.7964 7.1848 16.8278 7.26067C16.8593 7.33654 16.8755 7.41786 16.8755 7.49998C16.8755 7.5821 16.8593 7.66342 16.8278 7.73929C16.7964 7.81516 16.7504 7.8841 16.6923 7.94217Z" fill="#B1B1B1"/>
</svg>
