<svg width="17" height="17" viewBox="0 0 17 17" fill="none" xmlns="http://www.w3.org/2000/svg">
<path d="M13.3537 13.146C13.4001 13.1925 13.437 13.2476 13.4621 13.3083C13.4872 13.369 13.5002 13.4341 13.5002 13.4998C13.5002 13.5655 13.4872 13.6305 13.4621 13.6912C13.437 13.7519 13.4001 13.8071 13.3537 13.8535C13.3072 13.9 13.252 13.9368 13.1914 13.962C13.1307 13.9871 13.0656 14.0001 12.9999 14.0001C12.9342 14.0001 12.8692 13.9871 12.8085 13.962C12.7478 13.9368 12.6926 13.9 12.6462 13.8535L7.64615 8.85354C7.59967 8.8071 7.56279 8.75196 7.53763 8.69126C7.51246 8.63056 7.49951 8.5655 7.49951 8.49979C7.49951 8.43408 7.51246 8.36902 7.53763 8.30832C7.56279 8.24762 7.59967 8.19248 7.64615 8.14604L12.6462 3.14604C12.74 3.05222 12.8672 2.99951 12.9999 2.99951C13.1326 2.99951 13.2598 3.05222 13.3537 3.14604C13.4475 3.23986 13.5002 3.36711 13.5002 3.49979C13.5002 3.63247 13.4475 3.75972 13.3537 3.85354L8.70678 8.49979L13.3537 13.146ZM3.70678 8.49979L8.35366 3.85354C8.44748 3.75972 8.50018 3.63247 8.50018 3.49979C8.50018 3.36711 8.44748 3.23986 8.35366 3.14604C8.25984 3.05222 8.13259 2.99951 7.99991 2.99951C7.86722 2.99951 7.73997 3.05222 7.64615 3.14604L2.64615 8.14604C2.59967 8.19248 2.56279 8.24762 2.53763 8.30832C2.51246 8.36902 2.49951 8.43408 2.49951 8.49979C2.49951 8.5655 2.51246 8.63056 2.53763 8.69126C2.56279 8.75196 2.59967 8.8071 2.64615 8.85354L7.64615 13.8535C7.69261 13.9 7.74776 13.9368 7.80846 13.962C7.86915 13.9871 7.93421 14.0001 7.99991 14.0001C8.0656 14.0001 8.13066 13.9871 8.19135 13.962C8.25205 13.9368 8.3072 13.9 8.35366 13.8535C8.40011 13.8071 8.43696 13.7519 8.4621 13.6912C8.48724 13.6305 8.50018 13.5655 8.50018 13.4998C8.50018 13.4341 8.48724 13.369 8.4621 13.3083C8.43696 13.2476 8.40011 13.1925 8.35366 13.146L3.70678 8.49979Z" fill="#1B1B1B"/>
</svg>
