<svg width="32" height="32" viewBox="0 0 32 32" fill="none" xmlns="http://www.w3.org/2000/svg">
<path d="M20.7076 25.2921C20.8005 25.385 20.8742 25.4953 20.9244 25.6167C20.9747 25.7381 21.0006 25.8682 21.0006 25.9996C21.0006 26.131 20.9747 26.2611 20.9244 26.3825C20.8742 26.5039 20.8005 26.6142 20.7076 26.7071C20.6146 26.8 20.5043 26.8737 20.383 26.924C20.2616 26.9743 20.1314 27.0001 20.0001 27.0001C19.8687 27.0001 19.7386 26.9743 19.6172 26.924C19.4958 26.8737 19.3855 26.8 19.2926 26.7071L9.29255 16.7071C9.19958 16.6142 9.12582 16.5039 9.07549 16.3825C9.02517 16.2611 8.99927 16.131 8.99927 15.9996C8.99927 15.8682 9.02517 15.738 9.07549 15.6166C9.12582 15.4952 9.19958 15.385 9.29255 15.2921L19.2926 5.29208C19.4802 5.10444 19.7347 4.99902 20.0001 4.99902C20.2654 4.99902 20.5199 5.10444 20.7076 5.29208C20.8952 5.47972 21.0006 5.73422 21.0006 5.99958C21.0006 6.26494 20.8952 6.51944 20.7076 6.70708L11.4138 15.9996L20.7076 25.2921Z" fill="#1B1B1B"/>
</svg>
