<svg width="17" height="17" viewBox="0 0 17 17" fill="none" xmlns="http://www.w3.org/2000/svg">
<g id="CaretDoubleRight">
<path id="Vector" d="M9.35354 8.85354L4.35354 13.8535C4.25972 13.9474 4.13247 14.0001 3.99979 14.0001C3.86711 14.0001 3.73986 13.9474 3.64604 13.8535C3.55222 13.7597 3.49951 13.6325 3.49951 13.4998C3.49951 13.3671 3.55222 13.2399 3.64604 13.146L8.29291 8.49979L3.64604 3.85354C3.55222 3.75972 3.49951 3.63247 3.49951 3.49979C3.49951 3.36711 3.55222 3.23986 3.64604 3.14604C3.73986 3.05222 3.86711 2.99951 3.99979 2.99951C4.13247 2.99951 4.25972 3.05222 4.35354 3.14604L9.35354 8.14604C9.40003 8.19248 9.43691 8.24762 9.46207 8.30832C9.48723 8.36902 9.50018 8.43408 9.50018 8.49979C9.50018 8.5655 9.48723 8.63056 9.46207 8.69126C9.43691 8.75196 9.40003 8.8071 9.35354 8.85354ZM14.3535 8.14604L9.35354 3.14604C9.25972 3.05222 9.13247 2.99951 8.99979 2.99951C8.86711 2.99951 8.73986 3.05222 8.64604 3.14604C8.55222 3.23986 8.49951 3.36711 8.49951 3.49979C8.49951 3.63247 8.55222 3.75972 8.64604 3.85354L13.2929 8.49979L8.64604 13.146C8.55222 13.2399 8.49951 13.3671 8.49951 13.4998C8.49951 13.6325 8.55222 13.7597 8.64604 13.8535C8.73986 13.9474 8.86711 14.0001 8.99979 14.0001C9.13247 14.0001 9.25972 13.9474 9.35354 13.8535L14.3535 8.85354C14.4 8.8071 14.4369 8.75196 14.4621 8.69126C14.4872 8.63056 14.5002 8.5655 14.5002 8.49979C14.5002 8.43408 14.4872 8.36902 14.4621 8.30832C14.4369 8.24762 14.4 8.19248 14.3535 8.14604Z" fill="#1B1B1B"/>
</g>
</svg>
