<svg width="20" height="20" viewBox="0 0 20 20" fill="none" xmlns="http://www.w3.org/2000/svg">
<g clip-path="url(#clip0_2223_20480)">
<path d="M5.00002 8.20312V3.125C5.00002 2.95924 4.93417 2.80027 4.81696 2.68306C4.69975 2.56585 4.54078 2.5 4.37502 2.5C4.20926 2.5 4.05029 2.56585 3.93308 2.68306C3.81587 2.80027 3.75002 2.95924 3.75002 3.125V8.20312C3.21226 8.34081 2.73562 8.65356 2.39524 9.09207C2.05487 9.53057 1.87012 10.0699 1.87012 10.625C1.87012 11.1801 2.05487 11.7194 2.39524 12.1579C2.73562 12.5964 3.21226 12.9092 3.75002 13.0469V16.875C3.75002 17.0408 3.81587 17.1997 3.93308 17.3169C4.05029 17.4342 4.20926 17.5 4.37502 17.5C4.54078 17.5 4.69975 17.4342 4.81696 17.3169C4.93417 17.1997 5.00002 17.0408 5.00002 16.875V13.0469C5.53778 12.9092 6.01442 12.5964 6.35479 12.1579C6.69517 11.7194 6.87992 11.1801 6.87992 10.625C6.87992 10.0699 6.69517 9.53057 6.35479 9.09207C6.01442 8.65356 5.53778 8.34081 5.00002 8.20312ZM4.37502 11.875C4.12779 11.875 3.88612 11.8017 3.68056 11.6643C3.475 11.527 3.31478 11.3318 3.22017 11.1034C3.12556 10.8749 3.10081 10.6236 3.14904 10.3811C3.19727 10.1387 3.31632 9.91593 3.49114 9.74112C3.66595 9.5663 3.88868 9.44725 4.13116 9.39902C4.37363 9.35079 4.62497 9.37554 4.85337 9.47015C5.08178 9.56476 5.277 9.72498 5.41436 9.93054C5.55171 10.1361 5.62502 10.3778 5.62502 10.625C5.62502 10.9565 5.49332 11.2745 5.2589 11.5089C5.02448 11.7433 4.70654 11.875 4.37502 11.875ZM10.625 4.45312V3.125C10.625 2.95924 10.5592 2.80027 10.442 2.68306C10.3248 2.56585 10.1658 2.5 10 2.5C9.83426 2.5 9.67529 2.56585 9.55808 2.68306C9.44087 2.80027 9.37502 2.95924 9.37502 3.125V4.45312C8.83726 4.59081 8.36062 4.90356 8.02024 5.34207C7.67987 5.78057 7.49512 6.31989 7.49512 6.875C7.49512 7.43011 7.67987 7.96943 8.02024 8.40793C8.36062 8.84644 8.83726 9.15919 9.37502 9.29688V16.875C9.37502 17.0408 9.44087 17.1997 9.55808 17.3169C9.67529 17.4342 9.83426 17.5 10 17.5C10.1658 17.5 10.3248 17.4342 10.442 17.3169C10.5592 17.1997 10.625 17.0408 10.625 16.875V9.29688C11.1628 9.15919 11.6394 8.84644 11.9798 8.40793C12.3202 7.96943 12.5049 7.43011 12.5049 6.875C12.5049 6.31989 12.3202 5.78057 11.9798 5.34207C11.6394 4.90356 11.1628 4.59081 10.625 4.45312ZM10 8.125C9.75279 8.125 9.51112 8.05169 9.30556 7.91434C9.1 7.77699 8.93978 7.58176 8.84517 7.35335C8.75056 7.12495 8.72581 6.87361 8.77404 6.63114C8.82227 6.38866 8.94132 6.16593 9.11614 5.99112C9.29095 5.8163 9.51368 5.69725 9.75616 5.64902C9.99863 5.60079 10.25 5.62554 10.4784 5.72015C10.7068 5.81476 10.902 5.97498 11.0394 6.18054C11.1767 6.3861 11.25 6.62777 11.25 6.875C11.25 7.20652 11.1183 7.52446 10.8839 7.75888C10.6495 7.9933 10.3315 8.125 10 8.125ZM18.125 13.125C18.1245 12.5707 17.9401 12.0323 17.6008 11.5941C17.2616 11.1558 16.7865 10.8425 16.25 10.7031V3.125C16.25 2.95924 16.1842 2.80027 16.067 2.68306C15.9498 2.56585 15.7908 2.5 15.625 2.5C15.4593 2.5 15.3003 2.56585 15.1831 2.68306C15.0659 2.80027 15 2.95924 15 3.125V10.7031C14.4623 10.8408 13.9856 11.1536 13.6452 11.5921C13.3049 12.0306 13.1201 12.5699 13.1201 13.125C13.1201 13.6801 13.3049 14.2194 13.6452 14.6579C13.9856 15.0964 14.4623 15.4092 15 15.5469V16.875C15 17.0408 15.0659 17.1997 15.1831 17.3169C15.3003 17.4342 15.4593 17.5 15.625 17.5C15.7908 17.5 15.9498 17.4342 16.067 17.3169C16.1842 17.1997 16.25 17.0408 16.25 16.875V15.5469C16.7865 15.4075 17.2616 15.0942 17.6008 14.6559C17.9401 14.2177 18.1245 13.6793 18.125 13.125ZM15.625 14.375C15.3778 14.375 15.1361 14.3017 14.9306 14.1643C14.725 14.027 14.5648 13.8318 14.4702 13.6034C14.3756 13.3749 14.3508 13.1236 14.399 12.8811C14.4473 12.6387 14.5663 12.4159 14.7411 12.2411C14.916 12.0663 15.1387 11.9472 15.3812 11.899C15.6236 11.8508 15.875 11.8755 16.1034 11.9701C16.3318 12.0648 16.527 12.225 16.6644 12.4305C16.8017 12.6361 16.875 12.8778 16.875 13.125C16.875 13.4565 16.7433 13.7745 16.5089 14.0089C16.2745 14.2433 15.9565 14.375 15.625 14.375Z" fill="#1B1B1B"/>
</g>
<defs>
<clipPath id="clip0_2223_20480">
<rect width="20" height="20" fill="white"/>
</clipPath>
</defs>
</svg>
