<svg width="25" height="25" viewBox="0 0 25 25" fill="none" xmlns="http://www.w3.org/2000/svg">
<path d="M12.4631 4.9397C7.55979 4.9397 3.37234 7.98958 1.67578 12.2947C3.37234 16.5998 7.55979 19.6497 12.4631 19.6497C17.3665 19.6497 21.5539 16.5998 23.2505 12.2947C21.5539 7.98958 17.3665 4.9397 12.4631 4.9397ZM12.4631 17.1981C9.75649 17.1981 7.55979 15.0014 7.55979 12.2947C7.55979 9.58807 9.75649 7.39137 12.4631 7.39137C15.1698 7.39137 17.3665 9.58807 17.3665 12.2947C17.3665 15.0014 15.1698 17.1981 12.4631 17.1981ZM12.4631 9.35271C10.8352 9.35271 9.52113 10.6668 9.52113 12.2947C9.52113 13.9226 10.8352 15.2367 12.4631 15.2367C14.091 15.2367 15.4051 13.9226 15.4051 12.2947C15.4051 10.6668 14.091 9.35271 12.4631 9.35271Z" fill="#B1B1B1"/>
</svg>
