<svg width="20" height="20" viewBox="0 0 20 20" fill="none" xmlns="http://www.w3.org/2000/svg">
<path d="M18.7509 10.1944C18.7509 9.47495 18.6913 8.94995 18.5624 8.40552H10.1795V11.6527H15.1C15.0009 12.4597 14.4652 13.675 13.2747 14.4916L13.258 14.6003L15.9085 16.6126L16.0921 16.6305C17.7786 15.1041 18.7509 12.8583 18.7509 10.1944Z" fill="#4285F4"/>
<path d="M10.1789 18.75C12.5896 18.75 14.6134 17.9722 16.0916 16.6305L13.2741 14.4916C12.5202 15.0068 11.5082 15.3666 10.1789 15.3666C7.81782 15.3666 5.81387 13.8402 5.09952 11.7305L4.99481 11.7392L2.23876 13.8295L2.20272 13.9277C3.67095 16.786 6.68682 18.75 10.1789 18.75Z" fill="#34A853"/>
<path d="M5.10004 11.7305C4.91155 11.186 4.80247 10.6027 4.80247 9.99992C4.80247 9.3971 4.91155 8.81379 5.09012 8.26935L5.08513 8.1534L2.29454 6.02954L2.20323 6.0721C1.5981 7.25823 1.25088 8.5902 1.25088 9.99992C1.25088 11.4096 1.5981 12.7415 2.20323 13.9277L5.10004 11.7305Z" fill="#FBBC05"/>
<path d="M10.1789 4.63331C11.8555 4.63331 12.9864 5.34303 13.6313 5.93612L16.1511 3.525C14.6036 2.11528 12.5896 1.25 10.1789 1.25C6.68685 1.25 3.67096 3.21387 2.20272 6.07218L5.08962 8.26943C5.81389 6.15972 7.81785 4.63331 10.1789 4.63331Z" fill="#EB4335"/>
</svg>
