<svg width="19" height="20" viewBox="0 0 19 20" fill="none" xmlns="http://www.w3.org/2000/svg">
<path d="M18.1316 14.5881C17.601 13.675 16.8126 11.0997 16.8126 7.75C16.8126 5.8106 16.0422 3.95064 14.6708 2.57928C13.2994 1.20792 11.4395 0.4375 9.50008 0.4375C7.56069 0.4375 5.70073 1.20792 4.32937 2.57928C2.95801 3.95064 2.18758 5.8106 2.18758 7.75C2.18758 11.1006 1.39821 13.675 0.867584 14.5881C0.751161 14.7875 0.689384 15.014 0.688486 15.2449C0.687589 15.4758 0.747603 15.7028 0.862474 15.903C0.977344 16.1033 1.143 16.2697 1.34274 16.3855C1.54247 16.5013 1.76922 16.5623 2.00008 16.5625H5.98258C6.11921 17.3964 6.54778 18.1545 7.19177 18.7016C7.83575 19.2486 8.65323 19.549 9.49821 19.549C10.3432 19.549 11.1607 19.2486 11.8047 18.7016C12.4486 18.1545 12.8772 17.3964 13.0138 16.5625H17.0001C17.2308 16.562 17.4573 16.5007 17.6568 16.3848C17.8562 16.2689 18.0216 16.1024 18.1363 15.9022C18.2509 15.702 18.3108 15.4751 18.3098 15.2444C18.3088 15.0137 18.2471 14.7874 18.1307 14.5881H18.1316ZM9.50008 18.4375C8.95156 18.4373 8.41913 18.2521 7.98888 17.9119C7.55863 17.5716 7.25573 17.0962 7.12915 16.5625H11.871C11.7444 17.0962 11.4415 17.5716 11.0113 17.9119C10.581 18.2521 10.0486 18.4373 9.50008 18.4375ZM17.1604 15.3438C17.145 15.3725 17.1219 15.3964 17.0938 15.4129C17.0657 15.4295 17.0336 15.438 17.001 15.4375H2.00008C1.96748 15.438 1.93538 15.4295 1.90728 15.4129C1.87918 15.3964 1.85615 15.3725 1.84071 15.3438C1.82425 15.3152 1.81559 15.2829 1.81559 15.25C1.81559 15.2171 1.82425 15.1848 1.84071 15.1562C2.5504 13.9375 3.31258 11.0959 3.31258 7.75C3.31258 6.10897 3.96448 4.53516 5.12486 3.37478C6.28524 2.2144 7.85906 1.5625 9.50008 1.5625C11.1411 1.5625 12.7149 2.2144 13.8753 3.37478C15.0357 4.53516 15.6876 6.10897 15.6876 7.75C15.6876 11.095 16.4507 13.9328 17.1604 15.1562C17.1769 15.1848 17.1855 15.2171 17.1855 15.25C17.1855 15.2829 17.1769 15.3152 17.1604 15.3438Z" fill="#4D4D4D"/>
</svg>
