<svg width="23" height="18" viewBox="0 0 23 18" fill="none" xmlns="http://www.w3.org/2000/svg">
<path d="M22.5279 0.750047C22.5197 0.612753 22.4614 0.483234 22.3642 0.385978C22.2669 0.288722 22.1374 0.230469 22.0001 0.222234C17.2189 -0.0590159 13.3864 1.38661 11.7485 4.09036C10.6582 5.8913 10.6817 8.09161 11.7982 10.1841C11.0823 11.0037 10.5834 11.9897 10.347 13.0519L8.49074 11.1947C9.2548 9.68536 9.25011 8.10567 8.46074 6.80255C7.2598 4.81973 4.46886 3.75661 0.990737 3.96286C0.853291 3.97112 0.723648 4.0295 0.626371 4.12695C0.529093 4.2244 0.470938 4.35415 0.462925 4.49161C0.25855 7.9688 1.3198 10.7597 3.30261 11.9607C3.94839 12.3554 4.69078 12.5637 5.44761 12.5625C6.23141 12.5546 7.00227 12.3618 7.69761 12L10.1876 14.4825V17.25C10.1876 17.3992 10.2469 17.5423 10.3524 17.6478C10.4579 17.7533 10.6009 17.8125 10.7501 17.8125C10.8993 17.8125 11.0424 17.7533 11.1479 17.6478C11.2533 17.5423 11.3126 17.3992 11.3126 17.25V14.4854C11.3089 13.1967 11.7665 11.9493 12.6026 10.9688C13.6535 11.5247 14.7326 11.8041 15.7732 11.8041C16.7911 11.8075 17.7901 11.5294 18.6598 11.0007C21.3635 9.36473 22.8092 5.5313 22.5279 0.750047ZM3.88574 10.9979C2.35667 10.0725 1.50542 7.87505 1.56261 5.06255C4.37511 5.00161 6.5698 5.8538 7.49511 7.38286C8.02761 8.2613 8.07261 9.29348 7.63949 10.3444L5.14761 7.85161C5.04206 7.74606 4.89891 7.68677 4.74964 7.68677C4.60038 7.68677 4.45722 7.74606 4.35167 7.85161C4.24613 7.95716 4.18683 8.10031 4.18683 8.24958C4.18683 8.39885 4.24613 8.542 4.35167 8.64755L6.8473 11.1422C5.79636 11.5754 4.76417 11.5313 3.88574 10.9979ZM18.0776 10.0397C16.6957 10.876 15.0645 10.9004 13.4211 10.1241L18.6486 4.89755C18.7008 4.84528 18.7423 4.78324 18.7706 4.71496C18.7988 4.64667 18.8134 4.57349 18.8134 4.49958C18.8134 4.42567 18.7988 4.35248 18.7706 4.2842C18.7423 4.21592 18.7008 4.15387 18.6486 4.10161C18.5963 4.04935 18.5342 4.00789 18.466 3.97961C18.3977 3.95132 18.3245 3.93676 18.2506 3.93676C18.1767 3.93676 18.1035 3.95132 18.0352 3.97961C17.9669 4.00789 17.9049 4.04935 17.8526 4.10161L12.6251 9.32911C11.8489 7.68567 11.8751 6.05442 12.7095 4.67348C14.0707 2.42348 17.3089 1.18786 21.4282 1.32192C21.5623 5.43755 20.3257 8.67755 18.0776 10.0397Z" fill="#4D4D4D"/>
</svg>
