<svg width="18" height="18" viewBox="0 0 18 18" fill="none" xmlns="http://www.w3.org/2000/svg">
<path d="M16.9419 16.0578L13.0302 12.1469C14.1639 10.7857 14.7293 9.03983 14.6086 7.27244C14.488 5.50506 13.6906 3.85223 12.3823 2.65779C11.074 1.46334 9.35566 0.819256 7.58462 0.859506C5.81357 0.899756 4.12622 1.62125 2.87358 2.87389C1.62094 4.12653 0.899451 5.81388 0.859201 7.58492C0.818951 9.35597 1.46304 11.0744 2.65748 12.3826C3.85192 13.6909 5.50475 14.4883 7.27214 14.6089C9.03953 14.7296 10.7854 14.1642 12.1466 13.0305L16.0575 16.9422C16.1156 17.0003 16.1845 17.0463 16.2604 17.0777C16.3363 17.1092 16.4176 17.1253 16.4997 17.1253C16.5818 17.1253 16.6631 17.1092 16.739 17.0777C16.8149 17.0463 16.8838 17.0003 16.9419 16.9422C16.9999 16.8841 17.046 16.8152 17.0774 16.7393C17.1089 16.6634 17.125 16.5821 17.125 16.5C17.125 16.4179 17.1089 16.3366 17.0774 16.2607C17.046 16.1848 16.9999 16.1159 16.9419 16.0578ZM2.12469 7.75C2.12469 6.63748 2.45459 5.54994 3.07267 4.62491C3.69076 3.69989 4.56926 2.97892 5.5971 2.55317C6.62493 2.12743 7.75593 2.01604 8.84707 2.23308C9.93822 2.45012 10.9405 2.98585 11.7272 3.77252C12.5138 4.55919 13.0496 5.56147 13.2666 6.65261C13.4837 7.74376 13.3723 8.87475 12.9465 9.90259C12.5208 10.9304 11.7998 11.8089 10.8748 12.427C9.94975 13.0451 8.86221 13.375 7.74969 13.375C6.25836 13.3733 4.82858 12.7802 3.77404 11.7256C2.71951 10.6711 2.12634 9.24133 2.12469 7.75Z" fill="#1B1B1B"/>
</svg>
