<svg width="17" height="12" viewBox="0 0 17 12" fill="none" xmlns="http://www.w3.org/2000/svg">
<path d="M15.9423 1.06717L5.94229 11.0672C5.88425 11.1253 5.81531 11.1714 5.73944 11.2028C5.66357 11.2343 5.58224 11.2505 5.5001 11.2505C5.41797 11.2505 5.33664 11.2343 5.26077 11.2028C5.18489 11.1714 5.11596 11.1253 5.05792 11.0672L0.682916 6.69217C0.56564 6.57489 0.499756 6.41583 0.499756 6.24998C0.499756 6.08413 0.56564 5.92507 0.682916 5.80779C0.800191 5.69052 0.959251 5.62463 1.1251 5.62463C1.29096 5.62463 1.45002 5.69052 1.56729 5.80779L5.5001 9.74139L15.0579 0.182793C15.1752 0.0655181 15.3343 -0.000366212 15.5001 -0.000366211C15.666 -0.00036621 15.825 0.0655181 15.9423 0.182793C16.0596 0.300069 16.1255 0.459129 16.1255 0.624981C16.1255 0.790834 16.0596 0.949894 15.9423 1.06717Z" fill="white"/>
</svg>
