<svg width="21" height="19" viewBox="0 0 21 19" fill="none" xmlns="http://www.w3.org/2000/svg">
<path d="M19.9865 17.9687C18.5043 15.4075 16.1774 13.6103 13.4736 12.8481C14.7882 12.1799 15.8393 11.0885 16.4576 9.74975C17.0759 8.41105 17.2254 6.90311 16.8818 5.4691C16.5382 4.03508 15.7217 2.75856 14.5639 1.84537C13.4061 0.932182 11.9745 0.435547 10.4999 0.435547C9.0253 0.435547 7.59368 0.932182 6.43587 1.84537C5.27806 2.75856 4.46155 4.03508 4.11799 5.4691C3.77444 6.90311 3.92386 8.41105 4.54217 9.74975C5.16048 11.0885 6.21164 12.1799 7.52615 12.8481C4.8224 13.6094 2.49552 15.4065 1.01333 17.9687C0.972635 18.0328 0.945308 18.1043 0.932995 18.1792C0.920682 18.2541 0.923639 18.3306 0.941688 18.4043C0.959737 18.478 0.992505 18.5473 1.03802 18.608C1.08353 18.6687 1.14086 18.7195 1.20654 18.7575C1.27222 18.7955 1.3449 18.8197 1.42021 18.8289C1.49552 18.838 1.5719 18.8319 1.64476 18.8107C1.71762 18.7896 1.78545 18.7539 1.84417 18.7059C1.9029 18.6579 1.95129 18.5985 1.98646 18.5312C3.7874 15.4197 6.96927 13.5625 10.4999 13.5625C14.0305 13.5625 17.2124 15.4197 19.0133 18.5312C19.0485 18.5985 19.0969 18.6579 19.1556 18.7059C19.2143 18.7539 19.2822 18.7896 19.355 18.8107C19.4279 18.8319 19.5043 18.838 19.5796 18.8289C19.6549 18.8197 19.7276 18.7955 19.7933 18.7575C19.8589 18.7195 19.9163 18.6687 19.9618 18.608C20.0073 18.5473 20.0401 18.478 20.0581 18.4043C20.0762 18.3306 20.0791 18.2541 20.0668 18.1792C20.0545 18.1043 20.0272 18.0328 19.9865 17.9687ZM5.0624 6.99998C5.0624 5.92455 5.3813 4.87326 5.97878 3.97907C6.57626 3.08488 7.42548 2.38794 8.41906 1.97639C9.41263 1.56484 10.5059 1.45716 11.5607 1.66696C12.6155 1.87677 13.5843 2.39464 14.3448 3.15509C15.1052 3.91554 15.6231 4.88441 15.8329 5.93918C16.0427 6.99395 15.935 8.08725 15.5235 9.08082C15.1119 10.0744 14.415 10.9236 13.5208 11.5211C12.6266 12.1186 11.5753 12.4375 10.4999 12.4375C9.05832 12.4357 7.67628 11.8623 6.65692 10.843C5.63757 9.8236 5.06413 8.44156 5.0624 6.99998Z" fill="#4D4D4D"/>
</svg>
