<svg width="32" height="32" viewBox="0 0 32 32" fill="none" xmlns="http://www.w3.org/2000/svg">
    <path
        d="M28.8658 26.5005C26.9621 23.2092 24.0283 20.8492 20.6046 19.7305C22.2981 18.7223 23.6139 17.1861 24.3498 15.3577C25.0858 13.5294 25.2012 11.51 24.6784 9.60967C24.1556 7.70936 23.0234 6.03321 21.4558 4.83863C19.8882 3.64404 17.9717 2.99707 16.0008 2.99707C14.0299 2.99707 12.1135 3.64404 10.5459 4.83863C8.97823 6.03321 7.84607 7.70936 7.32325 9.60967C6.80043 11.51 6.91586 13.5294 7.65181 15.3577C8.38776 17.1861 9.70354 18.7223 11.3971 19.7305C7.97333 20.848 5.03958 23.208 3.13583 26.5005C3.06601 26.6143 3.01971 26.741 2.99964 26.873C2.97957 27.005 2.98615 27.1397 3.01898 27.2692C3.05182 27.3986 3.11024 27.5201 3.19082 27.6266C3.27139 27.7331 3.37247 27.8224 3.48811 27.8892C3.60374 27.956 3.73158 27.9989 3.86409 28.0155C3.99659 28.0321 4.13107 28.022 4.2596 27.9858C4.38813 27.9495 4.5081 27.8879 4.61244 27.8046C4.71677 27.7212 4.80335 27.6178 4.86708 27.5005C7.22208 23.4305 11.3846 21.0005 16.0008 21.0005C20.6171 21.0005 24.7796 23.4305 27.1346 27.5005C27.1983 27.6178 27.2849 27.7212 27.3892 27.8046C27.4936 27.8879 27.6135 27.9495 27.742 27.9858C27.8706 28.022 28.0051 28.0321 28.1376 28.0155C28.2701 27.9989 28.3979 27.956 28.5135 27.8892C28.6292 27.8224 28.7303 27.7331 28.8108 27.6266C28.8914 27.5201 28.9498 27.3986 28.9827 27.2692C29.0155 27.1397 29.0221 27.005 29.002 26.873C28.9819 26.741 28.9356 26.6143 28.8658 26.5005ZM9.00083 12.0005C9.00083 10.616 9.41137 9.26262 10.1805 8.11148C10.9497 6.96034 12.043 6.06313 13.322 5.53331C14.6011 5.0035 16.0086 4.86488 17.3665 5.13497C18.7243 5.40507 19.9716 6.07176 20.9506 7.05072C21.9295 8.02969 22.5962 9.27697 22.8663 10.6348C23.1364 11.9927 22.9978 13.4002 22.468 14.6793C21.9382 15.9583 21.041 17.0516 19.8898 17.8208C18.7387 18.5899 17.3853 19.0005 16.0008 19.0005C14.1449 18.9985 12.3656 18.2604 11.0533 16.948C9.74095 15.6357 9.00281 13.8564 9.00083 12.0005Z"
        fill="white" />
</svg>