<svg width="20" height="20" viewBox="0 0 20 20" fill="none" xmlns="http://www.w3.org/2000/svg">
<path d="M14.1923 10.4422L7.94229 16.6922C7.88422 16.7502 7.81528 16.7963 7.73941 16.8277C7.66354 16.8592 7.58223 16.8753 7.5001 16.8753C7.41798 16.8753 7.33666 16.8592 7.26079 16.8277C7.18492 16.7963 7.11598 16.7502 7.05792 16.6922C6.99985 16.6341 6.95378 16.5652 6.92236 16.4893C6.89093 16.4134 6.87476 16.3321 6.87476 16.25C6.87476 16.1679 6.89093 16.0865 6.92236 16.0107C6.95378 15.9348 6.99985 15.8659 7.05792 15.8078L12.8665 9.99998L7.05792 4.19217C6.94064 4.07489 6.87476 3.91583 6.87476 3.74998C6.87476 3.58413 6.94064 3.42507 7.05792 3.30779C7.17519 3.19052 7.33425 3.12463 7.5001 3.12463C7.66596 3.12463 7.82502 3.19052 7.94229 3.30779L14.1923 9.55779C14.2504 9.61584 14.2965 9.68477 14.328 9.76064C14.3594 9.83652 14.3756 9.91785 14.3756 9.99998C14.3756 10.0821 14.3594 10.1634 14.328 10.2393C14.2965 10.3152 14.2504 10.3841 14.1923 10.4422Z" fill="#003E49"/>
</svg>
