<svg width="20" height="20" viewBox="0 0 20 20" fill="none" xmlns="http://www.w3.org/2000/svg">
<g id="CaretRight">
<path id="Vector" d="M14.1922 10.4425L7.94217 16.6925C7.8841 16.7506 7.81516 16.7967 7.73929 16.8281C7.66342 16.8595 7.5821 16.8757 7.49998 16.8757C7.41786 16.8757 7.33654 16.8595 7.26067 16.8281C7.1848 16.7967 7.11586 16.7506 7.05779 16.6925C6.99972 16.6345 6.95366 16.5655 6.92224 16.4897C6.89081 16.4138 6.87463 16.3325 6.87463 16.2503C6.87463 16.1682 6.89081 16.0869 6.92224 16.011C6.95366 15.9352 6.99972 15.8662 7.05779 15.8082L12.8664 10.0003L7.05779 4.19253C6.94052 4.07526 6.87463 3.9162 6.87463 3.75035C6.87463 3.5845 6.94052 3.42544 7.05779 3.30816C7.17507 3.19088 7.33413 3.125 7.49998 3.125C7.66583 3.125 7.82489 3.19088 7.94217 3.30816L14.1922 9.55816C14.2503 9.61621 14.2964 9.68514 14.3278 9.76101C14.3593 9.83688 14.3755 9.91821 14.3755 10.0003C14.3755 10.0825 14.3593 10.1638 14.3278 10.2397C14.2964 10.3156 14.2503 10.3845 14.1922 10.4425Z" fill="#989898"/>
</g>
</svg>
