<svg width="15" height="16" viewBox="0 0 15 16" fill="none" xmlns="http://www.w3.org/2000/svg">
<path d="M7.5 0.6875C6.05373 0.6875 4.63993 1.11637 3.4374 1.91988C2.23486 2.72339 1.2976 3.86544 0.744134 5.20163C0.190668 6.53781 0.0458565 8.00811 0.328011 9.4266C0.610165 10.8451 1.30661 12.148 2.32928 13.1707C3.35196 14.1934 4.65492 14.8898 6.07341 15.172C7.49189 15.4541 8.96219 15.3093 10.2984 14.7559C11.6346 14.2024 12.7766 13.2651 13.5801 12.0626C14.3836 10.8601 14.8125 9.44628 14.8125 8C14.8105 6.06123 14.0394 4.20246 12.6685 2.83154C11.2975 1.46063 9.43877 0.689547 7.5 0.6875ZM7.5 14.1875C6.27623 14.1875 5.07994 13.8246 4.06241 13.1447C3.04488 12.4648 2.25182 11.4985 1.7835 10.3679C1.31518 9.23724 1.19265 7.99314 1.43139 6.79288C1.67014 5.59262 2.25944 4.49011 3.12478 3.62478C3.99012 2.75944 5.09262 2.17014 6.29288 1.93139C7.49314 1.69264 8.73724 1.81518 9.86786 2.2835C10.9985 2.75181 11.9648 3.54488 12.6447 4.56241C13.3246 5.57994 13.6875 6.77623 13.6875 8C13.6856 9.64046 13.0331 11.2132 11.8732 12.3732C10.7132 13.5331 9.14046 14.1856 7.5 14.1875ZM12 8C12 8.14918 11.9407 8.29226 11.8353 8.39775C11.7298 8.50324 11.5867 8.5625 11.4375 8.5625H7.5C7.35082 8.5625 7.20775 8.50324 7.10226 8.39775C6.99677 8.29226 6.9375 8.14918 6.9375 8V4.0625C6.9375 3.91332 6.99677 3.77024 7.10226 3.66475C7.20775 3.55926 7.35082 3.5 7.5 3.5C7.64919 3.5 7.79226 3.55926 7.89775 3.66475C8.00324 3.77024 8.0625 3.91332 8.0625 4.0625V7.4375H11.4375C11.5867 7.4375 11.7298 7.49676 11.8353 7.60225C11.9407 7.70774 12 7.85082 12 8Z" fill="#B1B1B1"/>
</svg>
