<svg width="20" height="20" viewBox="0 0 20 20" fill="none" xmlns="http://www.w3.org/2000/svg">
<path d="M17.8125 13.6719C17.7411 13.7126 17.6624 13.7389 17.5808 13.7491C17.4993 13.7594 17.4165 13.7534 17.3373 13.7317C17.258 13.7099 17.1839 13.6727 17.119 13.6223C17.0542 13.5718 16.9999 13.509 16.9593 13.4376L15.475 10.8438C14.612 11.4273 13.66 11.8669 12.6562 12.1454L13.1148 14.8969C13.1283 14.9779 13.1258 15.0608 13.1073 15.1408C13.0887 15.2208 13.0546 15.2964 13.0069 15.3632C12.9592 15.4301 12.8987 15.4868 12.829 15.5303C12.7593 15.5737 12.6818 15.603 12.6007 15.6165C12.5674 15.6219 12.5337 15.6248 12.5 15.6251C12.3521 15.6248 12.2091 15.5722 12.0964 15.4765C11.9837 15.3808 11.9085 15.2483 11.8843 15.1024L11.4336 12.4008C10.4829 12.5331 9.51856 12.5331 8.56793 12.4008L8.11715 15.1024C8.09289 15.2485 8.01753 15.3813 7.90449 15.477C7.79145 15.5727 7.64809 15.6252 7.49996 15.6251C7.46541 15.6249 7.43093 15.622 7.39684 15.6165C7.31582 15.603 7.23825 15.5737 7.16856 15.5303C7.09887 15.4868 7.03843 15.4301 6.99068 15.3632C6.94294 15.2964 6.90884 15.2208 6.89032 15.1408C6.87181 15.0608 6.86924 14.9779 6.88277 14.8969L7.34371 12.1454C6.3403 11.866 5.38887 11.4256 4.52652 10.8415L3.04684 13.4376C2.96396 13.582 2.8271 13.6876 2.66637 13.7311C2.50565 13.7746 2.33422 13.7525 2.1898 13.6696C2.04539 13.5867 1.93981 13.4499 1.89629 13.2891C1.85278 13.1284 1.87489 12.957 1.95777 12.8126L3.52027 10.0782C2.97144 9.60402 2.46677 9.08105 2.01246 8.51568C1.9558 8.45242 1.91263 8.37828 1.88558 8.29778C1.85853 8.21728 1.84817 8.13211 1.85513 8.04748C1.86209 7.96284 1.88622 7.88051 1.92606 7.80551C1.9659 7.73052 2.0206 7.66442 2.08683 7.61127C2.15306 7.55811 2.22943 7.51901 2.31127 7.49636C2.39311 7.4737 2.47872 7.46796 2.56285 7.47948C2.64699 7.49101 2.72789 7.51956 2.80063 7.56339C2.87336 7.60723 2.9364 7.66542 2.9859 7.73443C4.28277 9.33912 6.55152 11.2501 9.99996 11.2501C13.4484 11.2501 15.7171 9.33677 17.014 7.73443C17.063 7.66401 17.1259 7.60441 17.1988 7.55934C17.2718 7.51428 17.3532 7.4847 17.4381 7.47246C17.5229 7.46022 17.6094 7.46558 17.6921 7.4882C17.7749 7.51082 17.852 7.55022 17.9189 7.60394C17.9857 7.65766 18.0408 7.72457 18.0806 7.80049C18.1205 7.87641 18.1443 7.95972 18.1506 8.04524C18.1569 8.13075 18.1455 8.21665 18.1172 8.29759C18.0888 8.37852 18.0442 8.45276 17.9859 8.51568C17.5316 9.08105 17.0269 9.60402 16.4781 10.0782L18.0406 12.8126C18.0825 12.8838 18.1099 12.9627 18.1211 13.0447C18.1324 13.1266 18.1272 13.21 18.106 13.2899C18.0848 13.3698 18.0479 13.4448 17.9975 13.5103C17.9471 13.5759 17.8842 13.6308 17.8125 13.6719Z" fill="#B1B1B1"/>
</svg>
