<svg xmlns="http://www.w3.org/2000/svg" width="90" height="90" viewBox="0 0 90 90" fill="none">
	<path d="M45 89.9999C69.8528 89.9999 90 69.8528 90 45C90 20.1472 69.8528 0 45 0C20.1472 0 0 20.1472 0 45C0 69.8528 20.1472 89.9999 45 89.9999Z" fill="#E1EFF2"/>
	<path d="M81.1117 71.8176C76.9149 66.1987 71.4653 61.6362 65.196 58.4927C58.9268 55.3491 52.0108 53.7112 44.9976 53.709C37.9844 53.7068 31.0673 55.3404 24.7961 58.48C18.5249 61.6196 13.0725 66.1787 8.87207 71.7949C13.0511 77.4396 18.4947 82.0265 24.7662 85.1879C31.0378 88.3493 37.9629 89.9971 44.9862 89.9993C52.0095 90.0015 58.9356 88.358 65.2092 85.2006C71.4827 82.0431 76.9292 77.4596 81.1117 71.8176Z" fill="#91C2CB"/>
	<path d="M45 47.9031C54.6205 47.9031 62.4194 40.1042 62.4194 30.4838C62.4194 20.8634 54.6205 13.0645 45 13.0645C35.3796 13.0645 27.5807 20.8634 27.5807 30.4838C27.5807 40.1042 35.3796 47.9031 45 47.9031Z" fill="#91C2CB"/>
</svg>