<svg width="50" height="50" viewBox="0 0 50 51" fill="none" xmlns="http://www.w3.org/2000/svg">
<path d="M25 5.48828C20.9826 5.48828 17.0554 6.67959 13.715 8.91155C10.3746 11.1435 7.77111 14.3159 6.23371 18.0275C4.6963 21.7391 4.29405 25.8233 5.07781 29.7636C5.86157 33.7038 7.79615 37.3231 10.6369 40.1639C13.4777 43.0046 17.097 44.9392 21.0372 45.723C24.9775 46.5067 29.0616 46.1045 32.7733 44.5671C36.4849 43.0297 39.6573 40.4262 41.8892 37.0858C44.1212 33.7454 45.3125 29.8182 45.3125 25.8008C45.3068 20.4153 43.1649 15.2521 39.3568 11.444C35.5487 7.63586 30.3855 5.49397 25 5.48828ZM25 42.9883C21.6006 42.9883 18.2776 41.9803 15.4511 40.0917C12.6247 38.2031 10.4217 35.5188 9.12083 32.3782C7.81995 29.2375 7.47958 25.7817 8.14276 22.4477C8.80595 19.1136 10.4429 16.0511 12.8466 13.6474C15.2503 11.2437 18.3128 9.60672 21.6469 8.94353C24.9809 8.28035 28.4368 8.62072 31.5774 9.9216C34.718 11.2225 37.4023 13.4254 39.2909 16.2519C41.1795 19.0784 42.1875 22.4014 42.1875 25.8008C42.1823 30.3576 40.3699 34.7263 37.1477 37.9485C33.9255 41.1706 29.5568 42.9831 25 42.9883ZM32.1172 24.5L22.7422 18.25C22.5068 18.093 22.2332 18.0028 21.9506 17.9891C21.668 17.9754 21.387 18.0387 21.1375 18.1723C20.8881 18.3058 20.6796 18.5046 20.5343 18.7474C20.389 18.9901 20.3123 19.2678 20.3125 19.5508V32.0508C20.3123 32.3337 20.389 32.6114 20.5343 32.8542C20.6796 33.097 20.8881 33.2958 21.1375 33.4293C21.387 33.5629 21.668 33.6262 21.9506 33.6125C22.2332 33.5988 22.5068 33.5086 22.7422 33.3516L32.1172 27.1016C32.3315 26.9589 32.5073 26.7656 32.6288 26.5386C32.7504 26.3117 32.814 26.0582 32.814 25.8008C32.814 25.5433 32.7504 25.2899 32.6288 25.0629C32.5073 24.836 32.3315 24.6426 32.1172 24.5ZM23.4375 29.1309V22.4805L28.4336 25.8008L23.4375 29.1309Z" fill="#343330"/>
</svg>
