<svg width="19" height="18" viewBox="0 0 19 18" fill="none" xmlns="http://www.w3.org/2000/svg">
<path d="M18.3125 1.5V16.5C18.3125 16.8481 18.1742 17.1819 17.9281 17.4281C17.6819 17.6742 17.3481 17.8125 17 17.8125H10.25C10.1008 17.8125 9.95774 17.7532 9.85225 17.6477C9.74676 17.5423 9.6875 17.3992 9.6875 17.25C9.6875 17.1008 9.74676 16.9577 9.85225 16.8523C9.95774 16.7468 10.1008 16.6875 10.25 16.6875H17C17.0497 16.6875 17.0974 16.6677 17.1326 16.6326C17.1677 16.5974 17.1875 16.5497 17.1875 16.5V1.5C17.1875 1.45027 17.1677 1.40258 17.1326 1.36742C17.0974 1.33225 17.0497 1.3125 17 1.3125H2C1.95027 1.3125 1.90258 1.33225 1.86742 1.36742C1.83225 1.40258 1.8125 1.45027 1.8125 1.5V10.5C1.8125 10.6492 1.75324 10.7923 1.64775 10.8977C1.54226 11.0032 1.39918 11.0625 1.25 11.0625C1.10082 11.0625 0.957742 11.0032 0.852252 10.8977C0.746763 10.7923 0.6875 10.6492 0.6875 10.5V1.5C0.6875 1.1519 0.825781 0.818064 1.07192 0.571922C1.31806 0.325781 1.6519 0.1875 2 0.1875H17C17.3481 0.1875 17.6819 0.325781 17.9281 0.571922C18.1742 0.818064 18.3125 1.1519 18.3125 1.5ZM8.3525 11.6025L3.5 16.4541L1.6475 14.6025C1.54087 14.5031 1.39983 14.449 1.25411 14.4516C1.10838 14.4542 0.969343 14.5132 0.866284 14.6163C0.763224 14.7193 0.70419 14.8584 0.701619 15.0041C0.699048 15.1498 0.75314 15.2909 0.8525 15.3975L3.1025 17.6475C3.20797 17.7528 3.35094 17.812 3.5 17.812C3.64906 17.812 3.79203 17.7528 3.8975 17.6475L9.1475 12.3975C9.24686 12.2909 9.30095 12.1498 9.29838 12.0041C9.29581 11.8584 9.23678 11.7193 9.13372 11.6163C9.03066 11.5132 8.89162 11.4542 8.74589 11.4516C8.60017 11.449 8.45913 11.5031 8.3525 11.6025Z" fill="#4D4D4D"/>
</svg>
