<svg width="12" height="11" viewBox="0 0 12 11" fill="none" xmlns="http://www.w3.org/2000/svg">
<path d="M10.9921 4.86159L8.87804 6.70659L9.51132 9.45347C9.54483 9.59706 9.53527 9.74736 9.48383 9.88555C9.43239 10.0237 9.34135 10.1437 9.2221 10.2304C9.10285 10.3172 8.96068 10.3668 8.81336 10.3732C8.66604 10.3796 8.52011 10.3424 8.39382 10.2663L5.99804 8.81315L3.60741 10.2663C3.48112 10.3424 3.33519 10.3796 3.18787 10.3732C3.04055 10.3668 2.89838 10.3172 2.77913 10.2304C2.65988 10.1437 2.56884 10.0237 2.5174 9.88555C2.46596 9.74736 2.4564 9.59706 2.48991 9.45347L3.12226 6.7094L1.00773 4.86159C0.895886 4.76513 0.815014 4.6378 0.775251 4.49557C0.735489 4.35333 0.738606 4.20252 0.784212 4.06205C0.829818 3.92158 0.915882 3.7977 1.03161 3.70594C1.14734 3.61419 1.28759 3.55865 1.43476 3.54628L4.22194 3.30487L5.30991 0.709872C5.36673 0.573708 5.46256 0.457398 5.58534 0.375587C5.70813 0.293776 5.85237 0.250122 5.99991 0.250122C6.14746 0.250122 6.2917 0.293776 6.41448 0.375587C6.53727 0.457398 6.6331 0.573708 6.68991 0.709872L7.78116 3.30487L10.5674 3.54628C10.7146 3.55865 10.8548 3.61419 10.9706 3.70594C11.0863 3.7977 11.1724 3.92158 11.218 4.06205C11.2636 4.20252 11.2667 4.35333 11.2269 4.49557C11.1872 4.6378 11.1063 4.76513 10.9944 4.86159H10.9921Z" fill="#418997"/>
</svg>
