<svg width="61" height="48" viewBox="0 0 61 48" fill="none" xmlns="http://www.w3.org/2000/svg">
<path d="M60.4077 1.97265C60.3792 1.48337 60.1719 1.02161 59.8254 0.675038C59.4788 0.32847 59.017 0.121226 58.5277 0.0926527C45.5877 -0.657347 35.1977 3.27765 30.7327 10.6477C27.7827 15.5202 27.7877 21.4377 30.6927 27.0827C29.0392 29.0511 27.8308 31.3536 27.1502 33.8327L23.0827 29.7502C25.0377 25.6677 24.9627 21.4127 22.8327 17.8777C19.5327 12.4302 11.9152 9.51015 2.45774 10.0652C1.96845 10.0937 1.50669 10.301 1.16012 10.6475C0.813554 10.9941 0.606311 11.4559 0.577737 11.9452C0.0202371 21.4027 2.94274 29.0202 8.39024 32.3202C10.1879 33.4185 12.2536 33.9998 14.3602 34.0002C16.405 33.975 18.4179 33.4905 20.2502 32.5827L26.5002 38.8327V46.0002C26.5002 46.5306 26.711 47.0393 27.086 47.4144C27.4611 47.7894 27.9698 48.0002 28.5002 48.0002C29.0307 48.0002 29.5394 47.7894 29.9144 47.4144C30.2895 47.0393 30.5002 46.5306 30.5002 46.0002V38.6277C30.4913 35.4459 31.5741 32.3574 33.5677 29.8777C36.1401 31.222 38.993 31.9414 41.8952 31.9777C44.7012 31.9867 47.455 31.2202 49.8527 29.7627C57.2227 25.3027 61.1677 14.9127 60.4077 1.97265ZM10.4527 28.9002C6.61774 26.5777 4.44774 21.0802 4.50024 14.0002C11.5802 13.9402 17.0777 16.1177 19.4002 19.9527C20.6127 21.9527 20.8102 24.2852 20.0152 26.6877L13.9127 20.5852C13.5346 20.2259 13.0311 20.0286 12.5096 20.0353C11.9881 20.042 11.4898 20.2521 11.121 20.6209C10.7522 20.9897 10.542 21.488 10.5354 22.0095C10.5287 22.531 10.726 23.0345 11.0852 23.4127L17.1877 29.5152C14.7852 30.3102 12.4552 30.1127 10.4527 28.9002ZM47.7802 26.3452C44.4302 28.3727 40.4927 28.5277 36.4927 26.8452L49.9152 13.4202C50.2745 13.042 50.4718 12.5385 50.4651 12.017C50.4584 11.4955 50.2483 10.9972 49.8795 10.6284C49.5107 10.2596 49.0124 10.0495 48.4909 10.0428C47.9694 10.0361 47.4659 10.2334 47.0877 10.5927L33.6627 24.0002C31.9727 20.0002 32.1252 16.0602 34.1627 12.7127C37.6477 6.96265 45.9127 3.75765 56.4952 4.00515C56.7352 14.5852 53.5352 22.8602 47.7802 26.3452Z" fill="#7F7F7F"/>
</svg>
