<svg width="16" height="15" viewBox="0 0 16 15" fill="none" xmlns="http://www.w3.org/2000/svg">
<path d="M15.2358 13.9062C14.1649 12.0549 12.5147 10.7274 10.5889 10.0981C11.5415 9.53098 12.2816 8.66686 12.6956 7.63841C13.1095 6.60996 13.1745 5.47405 12.8804 4.40513C12.5863 3.33621 11.9495 2.39338 11.0677 1.72142C10.1859 1.04947 9.10788 0.685547 7.99924 0.685547C6.89061 0.685547 5.81262 1.04947 4.93082 1.72142C4.04903 2.39338 3.41219 3.33621 3.11811 4.40513C2.82402 5.47405 2.88895 6.60996 3.30292 7.63841C3.71689 8.66686 4.45702 9.53098 5.40964 10.0981C3.48378 10.7267 1.83354 12.0542 0.762682 13.9062C0.723412 13.9702 0.697364 14.0415 0.686076 14.1158C0.674787 14.19 0.678487 14.2658 0.696957 14.3386C0.715426 14.4114 0.748292 14.4798 0.793614 14.5397C0.838935 14.5996 0.895796 14.6498 0.96084 14.6874C1.02588 14.7249 1.09779 14.7491 1.17233 14.7584C1.24686 14.7678 1.32251 14.7621 1.39481 14.7417C1.4671 14.7213 1.53459 14.6867 1.59327 14.6398C1.65196 14.5929 1.70067 14.5347 1.73651 14.4687C3.0612 12.1793 5.4026 10.8125 7.99924 10.8125C10.5959 10.8125 12.9373 12.1793 14.262 14.4687C14.2978 14.5347 14.3465 14.5929 14.4052 14.6398C14.4639 14.6867 14.5314 14.7213 14.6037 14.7417C14.676 14.7621 14.7516 14.7678 14.8262 14.7584C14.9007 14.7491 14.9726 14.7249 15.0376 14.6874C15.1027 14.6498 15.1596 14.5996 15.2049 14.5397C15.2502 14.4798 15.2831 14.4114 15.3015 14.3386C15.32 14.2658 15.3237 14.19 15.3124 14.1158C15.3011 14.0415 15.2751 13.9702 15.2358 13.9062ZM4.06174 5.74996C4.06174 4.9712 4.29267 4.20992 4.72533 3.5624C5.15799 2.91488 5.77294 2.4102 6.49243 2.11218C7.21191 1.81416 8.00361 1.73619 8.76741 1.88812C9.53121 2.04005 10.2328 2.41506 10.7835 2.96573C11.3341 3.5164 11.7092 4.21799 11.8611 4.98179C12.013 5.74559 11.935 6.53729 11.637 7.25678C11.339 7.97626 10.8343 8.59121 10.1868 9.02387C9.53928 9.45653 8.77801 9.68746 7.99924 9.68746C6.9553 9.68634 5.95443 9.27114 5.21624 8.53296C4.47806 7.79478 4.06286 6.79391 4.06174 5.74996Z" fill="#B1B1B1"/>
</svg>
