<svg width="24" height="24" viewBox="0 0 24 24" fill="none" xmlns="http://www.w3.org/2000/svg">
<path d="M12 0C9.62663 0 7.30655 0.703788 5.33316 2.02236C3.35977 3.34094 1.8217 5.21508 0.913451 7.4078C0.00519941 9.60051 -0.232441 12.0133 0.230582 14.3411C0.693605 16.6689 1.83649 18.807 3.51472 20.4853C5.19295 22.1635 7.33115 23.3064 9.65892 23.7694C11.9867 24.2324 14.3995 23.9948 16.5922 23.0865C18.7849 22.1783 20.6591 20.6402 21.9776 18.6668C23.2962 16.6934 24 14.3734 24 12C23.9966 8.81843 22.7313 5.76814 20.4816 3.51843C18.2319 1.26872 15.1816 0.00335979 12 0ZM5.77847 20.0192C6.44624 18.9749 7.36616 18.1154 8.45345 17.5201C9.54074 16.9247 10.7604 16.6127 12 16.6127C13.2396 16.6127 14.4593 16.9247 15.5466 17.5201C16.6338 18.1154 17.5538 18.9749 18.2215 20.0192C16.4427 21.4027 14.2535 22.1538 12 22.1538C9.74652 22.1538 7.55731 21.4027 5.77847 20.0192ZM8.3077 11.0769C8.3077 10.3467 8.52425 9.63278 8.92996 9.02559C9.33568 8.41839 9.91234 7.94514 10.587 7.66567C11.2617 7.38621 12.0041 7.31309 12.7203 7.45556C13.4366 7.59803 14.0945 7.94969 14.6109 8.46607C15.1272 8.98244 15.4789 9.64035 15.6214 10.3566C15.7638 11.0728 15.6907 11.8152 15.4113 12.4899C15.1318 13.1646 14.6585 13.7412 14.0513 14.147C13.4441 14.5527 12.7303 14.7692 12 14.7692C11.0207 14.7692 10.0816 14.3802 9.38915 13.6878C8.69671 12.9953 8.3077 12.0562 8.3077 11.0769ZM19.5877 18.7396C18.5582 17.2478 17.1106 16.0936 15.4269 15.4223C16.3313 14.71 16.9913 13.7335 17.315 12.6287C17.6387 11.5239 17.6101 10.3457 17.2332 9.25794C16.8562 8.17015 16.1497 7.22687 15.2118 6.55926C14.2739 5.89165 13.1512 5.5329 12 5.5329C10.8488 5.5329 9.72613 5.89165 8.78823 6.55926C7.85033 7.22687 7.14378 8.17015 6.76683 9.25794C6.38989 10.3457 6.36129 11.5239 6.68501 12.6287C7.00873 13.7335 7.66868 14.71 8.57308 15.4223C6.88941 16.0936 5.44181 17.2478 4.41231 18.7396C3.11143 17.2767 2.26116 15.469 1.9639 13.534C1.66664 11.5991 1.93506 9.61949 2.73683 7.83357C3.53861 6.04766 4.83955 4.53159 6.48301 3.46793C8.12647 2.40426 10.0424 1.83836 12 1.83836C13.9576 1.83836 15.8735 2.40426 17.517 3.46793C19.1605 4.53159 20.4614 6.04766 21.2632 7.83357C22.0649 9.61949 22.3334 11.5991 22.0361 13.534C21.7388 15.469 20.8886 17.2767 19.5877 18.7396Z" fill="#003E49"/>
</svg>
