<svg width="15" height="14" viewBox="0 0 15 14" fill="none" xmlns="http://www.w3.org/2000/svg">
<path d="M13.1875 3.0625H1.9375C1.78832 3.0625 1.64524 3.00324 1.53975 2.89775C1.43426 2.79226 1.375 2.64918 1.375 2.5C1.375 2.35082 1.43426 2.20774 1.53975 2.10225C1.64524 1.99676 1.78832 1.9375 1.9375 1.9375H11.5C11.6492 1.9375 11.7923 1.87824 11.8977 1.77275C12.0032 1.66726 12.0625 1.52418 12.0625 1.375C12.0625 1.22582 12.0032 1.08274 11.8977 0.977253C11.7923 0.871763 11.6492 0.8125 11.5 0.8125H1.9375C1.48995 0.8125 1.06072 0.99029 0.744257 1.30676C0.42779 1.62322 0.25 2.05245 0.25 2.5V11.5C0.25 11.9476 0.42779 12.3768 0.744257 12.6932C1.06072 13.0097 1.48995 13.1875 1.9375 13.1875H13.1875C13.4859 13.1875 13.772 13.069 13.983 12.858C14.194 12.647 14.3125 12.3609 14.3125 12.0625V4.1875C14.3125 3.88913 14.194 3.60298 13.983 3.392C13.772 3.18103 13.4859 3.0625 13.1875 3.0625ZM13.1875 12.0625H1.9375C1.78832 12.0625 1.64524 12.0032 1.53975 11.8977C1.43426 11.7923 1.375 11.6492 1.375 11.5V4.09117C1.55562 4.1552 1.74587 4.18778 1.9375 4.1875H13.1875V12.0625ZM9.8125 7.84375C9.8125 7.67687 9.86199 7.51374 9.9547 7.37499C10.0474 7.23623 10.1792 7.12809 10.3334 7.06423C10.4875 7.00037 10.6572 6.98366 10.8209 7.01621C10.9845 7.04877 11.1349 7.12913 11.2529 7.24713C11.3709 7.36513 11.4512 7.51547 11.4838 7.67914C11.5163 7.84281 11.4996 8.01246 11.4358 8.16664C11.3719 8.32081 11.2638 8.45259 11.125 8.5453C10.9863 8.63801 10.8231 8.6875 10.6562 8.6875C10.4325 8.6875 10.2179 8.5986 10.0596 8.44037C9.90139 8.28214 9.8125 8.06753 9.8125 7.84375Z" fill="#B1B1B1"/>
</svg>
