<svg width="20" height="16" viewBox="0 0 20 16" fill="none" xmlns="http://www.w3.org/2000/svg">
<path d="M19.3469 1.11682C19.3379 0.963918 19.2732 0.819618 19.1649 0.711316C19.0566 0.603013 18.9123 0.538249 18.7594 0.52932C14.7156 0.294945 11.4687 1.52463 10.0734 3.82776C9.15156 5.35041 9.15312 7.19963 10.0609 8.9637C9.54421 9.57882 9.16658 10.2984 8.9539 11.0731L7.68281 9.79729C8.29374 8.52151 8.27031 7.19182 7.60468 6.08713C6.57343 4.38479 4.19296 3.47229 1.23749 3.64573C1.08459 3.65466 0.940292 3.71942 0.83199 3.82772C0.723688 3.93602 0.658924 4.08032 0.649995 4.23323C0.475776 7.18869 1.38906 9.56916 3.0914 10.6004C3.65317 10.9436 4.29871 11.1253 4.95703 11.1254C5.59601 11.1175 6.22505 10.9662 6.79765 10.6824L8.75078 12.6356V14.8754C8.75078 15.0412 8.81662 15.2001 8.93383 15.3174C9.05104 15.4346 9.21002 15.5004 9.37578 15.5004C9.54154 15.5004 9.70051 15.4346 9.81772 15.3174C9.93493 15.2001 10.0008 15.0412 10.0008 14.8754V12.5715C9.99799 11.5772 10.3364 10.612 10.9594 9.83713C11.7632 10.2572 12.6548 10.4821 13.5617 10.4934C14.4386 10.4962 15.2991 10.2567 16.0484 9.8012C18.3516 8.40745 19.5844 5.16057 19.3469 1.11682ZM3.73593 9.53166C2.53749 8.80588 1.85937 7.08791 1.87578 4.87541C4.08828 4.85666 5.80624 5.53713 6.53203 6.73557C6.91093 7.36057 6.97265 8.08948 6.72421 8.84026L4.81718 6.93323C4.69902 6.82096 4.54167 6.7593 4.3787 6.76139C4.21572 6.76348 4.06001 6.82914 3.94476 6.9444C3.82951 7.05965 3.76384 7.21536 3.76175 7.37834C3.75966 7.54131 3.82133 7.69866 3.93359 7.81682L5.84062 9.72385C5.08984 9.97229 4.36171 9.91057 3.73593 9.53166ZM15.4008 8.73323C14.3539 9.36682 13.1234 9.41526 11.8734 8.88948L16.068 4.69416C16.1802 4.576 16.2419 4.41866 16.2398 4.25568C16.2377 4.0927 16.172 3.93699 16.0568 3.82174C15.9415 3.70649 15.7858 3.64082 15.6229 3.63873C15.4599 3.63665 15.3025 3.69831 15.1844 3.81057L10.9891 8.00041C10.4609 6.75041 10.5086 5.51916 11.1453 4.47307C12.2344 2.6762 14.8172 1.67463 18.1242 1.75198C18.1992 5.05823 17.1992 7.64416 15.4008 8.73323Z" fill="#1B1B1B"/>
</svg>
