<svg xmlns="http://www.w3.org/2000/svg" width="25" height="24" viewBox="0 0 25 24" fill="none">
	<path
		d="M21.3125 4.5V19.5C21.3125 19.8481 21.1742 20.1819 20.9281 20.4281C20.6819 20.6742 20.3481 20.8125 20 20.8125H13.25C13.1008 20.8125 12.9577 20.7532 12.8523 20.6477C12.7468 20.5423 12.6875 20.3992 12.6875 20.25C12.6875 20.1008 12.7468 19.9577 12.8523 19.8523C12.9577 19.7468 13.1008 19.6875 13.25 19.6875H20C20.0497 19.6875 20.0974 19.6677 20.1326 19.6326C20.1677 19.5974 20.1875 19.5497 20.1875 19.5V4.5C20.1875 4.45027 20.1677 4.40258 20.1326 4.36742C20.0974 4.33225 20.0497 4.3125 20 4.3125H5C4.95027 4.3125 4.90258 4.33225 4.86742 4.36742C4.83225 4.40258 4.8125 4.45027 4.8125 4.5V13.5C4.8125 13.6492 4.75324 13.7923 4.64775 13.8977C4.54226 14.0032 4.39918 14.0625 4.25 14.0625C4.10082 14.0625 3.95774 14.0032 3.85225 13.8977C3.74676 13.7923 3.6875 13.6492 3.6875 13.5V4.5C3.6875 4.1519 3.82578 3.81806 4.07192 3.57192C4.31806 3.32578 4.6519 3.1875 5 3.1875H20C20.3481 3.1875 20.6819 3.32578 20.9281 3.57192C21.1742 3.81806 21.3125 4.1519 21.3125 4.5ZM11.3525 14.6025L6.5 19.4541L4.6475 17.6025C4.54087 17.5031 4.39983 17.449 4.25411 17.4516C4.10838 17.4542 3.96934 17.5132 3.86628 17.6163C3.76322 17.7193 3.70419 17.8584 3.70162 18.0041C3.69905 18.1498 3.75314 18.2909 3.8525 18.3975L6.1025 20.6475C6.20797 20.7528 6.35094 20.812 6.5 20.812C6.64906 20.812 6.79203 20.7528 6.8975 20.6475L12.1475 15.3975C12.2469 15.2909 12.301 15.1498 12.2984 15.0041C12.2958 14.8584 12.2368 14.7193 12.1337 14.6163C12.0307 14.5132 11.8916 14.4542 11.7459 14.4516C11.6002 14.449 11.4591 14.5031 11.3525 14.6025Z"
		fill="#4D4D4D" />
</svg>