<svg xmlns="http://www.w3.org/2000/svg" width="14" height="14" viewBox="0 0 14 14" fill="none">
    <path
        d="M7 2.1875C5.96165 2.1875 4.94662 2.49541 4.08326 3.07228C3.2199 3.64916 2.54699 4.4691 2.14963 5.42841C1.75227 6.38772 1.64831 7.44332 1.85088 8.46172C2.05345 9.48012 2.55347 10.4156 3.28769 11.1498C4.02192 11.884 4.95738 12.3841 5.97578 12.5866C6.99418 12.7892 8.04978 12.6852 9.00909 12.2879C9.9684 11.8905 10.7883 11.2176 11.3652 10.3542C11.9421 9.49089 12.25 8.47585 12.25 7.4375C12.2484 6.0456 11.6948 4.71117 10.7106 3.72695C9.72633 2.74273 8.3919 2.18909 7 2.1875ZM7 11.8125C6.13471 11.8125 5.28885 11.5559 4.56938 11.0752C3.84992 10.5944 3.28916 9.91117 2.95803 9.11174C2.6269 8.31231 2.54026 7.43265 2.70907 6.58398C2.87788 5.73531 3.29456 4.95576 3.90641 4.34391C4.51826 3.73205 5.29782 3.31537 6.14648 3.14656C6.99515 2.97775 7.87481 3.06439 8.67424 3.39553C9.47367 3.72666 10.1569 4.28742 10.6377 5.00688C11.1184 5.72635 11.375 6.57221 11.375 7.4375C11.3737 8.59742 10.9123 9.70946 10.0922 10.5297C9.27197 11.3498 8.15992 11.8112 7 11.8125ZM9.49703 4.94047C9.53771 4.9811 9.56998 5.02935 9.592 5.08246C9.61401 5.13558 9.62535 5.19251 9.62535 5.25C9.62535 5.30749 9.61401 5.36442 9.592 5.41754C9.56998 5.47065 9.53771 5.5189 9.49703 5.55953L7.30953 7.74703C7.26889 7.78768 7.22063 7.81992 7.16752 7.84192C7.11441 7.86392 7.05749 7.87524 7 7.87524C6.94252 7.87524 6.88559 7.86392 6.83249 7.84192C6.77938 7.81992 6.73112 7.78768 6.69047 7.74703C6.64982 7.70638 6.61758 7.65813 6.59558 7.60502C6.57358 7.55191 6.56226 7.49499 6.56226 7.4375C6.56226 7.38001 6.57358 7.32309 6.59558 7.26998C6.61758 7.21687 6.64982 7.16862 6.69047 7.12797L8.87797 4.94047C8.9186 4.89979 8.96685 4.86752 9.01997 4.84551C9.07308 4.82349 9.13001 4.81216 9.1875 4.81216C9.245 4.81216 9.30193 4.82349 9.35504 4.84551C9.40815 4.86752 9.4564 4.89979 9.49703 4.94047ZM5.25 0.875C5.25 0.758968 5.2961 0.647688 5.37814 0.565641C5.46019 0.483594 5.57147 0.4375 5.6875 0.4375H8.3125C8.42853 0.4375 8.53981 0.483594 8.62186 0.565641C8.70391 0.647688 8.75 0.758968 8.75 0.875C8.75 0.991032 8.70391 1.10231 8.62186 1.18436C8.53981 1.26641 8.42853 1.3125 8.3125 1.3125H5.6875C5.57147 1.3125 5.46019 1.26641 5.37814 1.18436C5.2961 1.10231 5.25 0.991032 5.25 0.875Z"
        fill="#989898" />
</svg>