<svg
    xmlns="http://www.w3.org/2000/svg"
    width="14"
    height="14"
    viewBox="0 0 14 14"
    fill="none"
>
    <path
        d="M13.5248 6.82281C13.5056 6.77961 13.0424 5.75203 12.0127 4.72227C10.6405 3.35016 8.9075 2.625 7 2.625C5.0925 2.625 3.35945 3.35016 1.98734 4.72227C0.957573 5.75203 0.492182 6.78125 0.475229 6.82281C0.450354 6.87876 0.4375 6.93931 0.4375 7.00055C0.4375 7.06178 0.450354 7.12233 0.475229 7.17828C0.49437 7.22148 0.957573 8.24852 1.98734 9.27828C3.35945 10.6498 5.0925 11.375 7 11.375C8.9075 11.375 10.6405 10.6498 12.0127 9.27828C13.0424 8.24852 13.5056 7.22148 13.5248 7.17828C13.5496 7.12233 13.5625 7.06178 13.5625 7.00055C13.5625 6.93931 13.5496 6.87876 13.5248 6.82281ZM7 10.5C5.31671 10.5 3.84617 9.88805 2.62882 8.68164C2.12933 8.18491 1.70438 7.61849 1.36718 7C1.70429 6.38145 2.12925 5.81502 2.62882 5.31836C3.84617 4.11195 5.31671 3.5 7 3.5C8.68328 3.5 10.1538 4.11195 11.3712 5.31836C11.8716 5.8149 12.2975 6.38133 12.6355 7C12.2412 7.73609 10.5235 10.5 7 10.5ZM7 4.375C6.48082 4.375 5.9733 4.52895 5.54162 4.81739C5.10994 5.10583 4.77349 5.5158 4.57481 5.99546C4.37613 6.47511 4.32415 7.00291 4.42543 7.51211C4.52672 8.02131 4.77673 8.48904 5.14384 8.85616C5.51095 9.22327 5.97868 9.47328 6.48788 9.57456C6.99708 9.67585 7.52488 9.62386 8.00454 9.42518C8.4842 9.2265 8.89416 8.89005 9.1826 8.45837C9.47104 8.02669 9.625 7.51918 9.625 7C9.62427 6.30403 9.34748 5.63677 8.85535 5.14464C8.36323 4.65252 7.69597 4.37572 7 4.375ZM7 8.75C6.65388 8.75 6.31553 8.64736 6.02775 8.45507C5.73996 8.26278 5.51566 7.98947 5.38321 7.6697C5.25075 7.34993 5.2161 6.99806 5.28362 6.65859C5.35115 6.31913 5.51782 6.0073 5.76256 5.76256C6.0073 5.51782 6.31912 5.35115 6.65859 5.28363C6.99805 5.2161 7.34992 5.25076 7.66969 5.38321C7.98946 5.51566 8.26277 5.73997 8.45507 6.02775C8.64736 6.31554 8.75 6.65388 8.75 7C8.75 7.46413 8.56562 7.90925 8.23743 8.23744C7.90924 8.56563 7.46412 8.75 7 8.75Z"
        fill="#989898"
    />
</svg>