<svg xmlns="http://www.w3.org/2000/svg" width="25" height="24" viewBox="0 0 25 24" fill="none">
	<path
		d="M21.8113 6.87821L17.6216 2.68946C17.4823 2.55014 17.3169 2.43962 17.1349 2.36421C16.9529 2.28881 16.7578 2.25 16.5608 2.25C16.3638 2.25 16.1687 2.28881 15.9867 2.36421C15.8047 2.43962 15.6393 2.55014 15.5 2.68946L3.9397 14.2498C3.7998 14.3886 3.68889 14.5538 3.61341 14.7358C3.53792 14.9178 3.49938 15.113 3.50001 15.3101V19.4998C3.50001 19.8976 3.65804 20.2791 3.93935 20.5604C4.22065 20.8417 4.60218 20.9998 5.00001 20.9998H20.75C20.9489 20.9998 21.1397 20.9208 21.2803 20.7801C21.421 20.6395 21.5 20.4487 21.5 20.2498C21.5 20.0509 21.421 19.8601 21.2803 19.7194C21.1397 19.5788 20.9489 19.4998 20.75 19.4998H11.3113L21.8113 8.99977C21.9506 8.86048 22.0611 8.69511 22.1365 8.5131C22.2119 8.33108 22.2507 8.136 22.2507 7.93899C22.2507 7.74198 22.2119 7.5469 22.1365 7.36489C22.0611 7.18288 21.9506 7.0175 21.8113 6.87821ZM7.93626 17.6248L16.4056 9.1554L17.9703 10.7191L9.50001 19.1895L7.93626 17.6248ZM15.3425 8.09415L6.87501 16.5645L5.31032 14.9998L13.7806 6.5304L15.3425 8.09415ZM5.00001 16.8101L7.6897 19.4998H5.00001V16.8101Z"
		fill="#418997" />
</svg>