<svg xmlns="http://www.w3.org/2000/svg" width="14" height="14" viewBox="0 0 14 14" fill="none">
	<path
		d="M12.7143 4.40239L5.7143 11.4024C5.65333 11.4636 5.58088 11.5121 5.50111 11.5452C5.42135 11.5784 5.33582 11.5954 5.24945 11.5954C5.16308 11.5954 5.07756 11.5784 4.99779 11.5452C4.91802 11.5121 4.84558 11.4636 4.78461 11.4024L1.72211 8.33989C1.66106 8.27884 1.61264 8.20637 1.5796 8.12662C1.54657 8.04686 1.52956 7.96137 1.52956 7.87504C1.52956 7.78872 1.54657 7.70323 1.5796 7.62347C1.61264 7.54372 1.66106 7.47125 1.72211 7.4102C1.78315 7.34916 1.85562 7.30073 1.93538 7.2677C2.01514 7.23466 2.10062 7.21766 2.18695 7.21766C2.27328 7.21766 2.35877 7.23466 2.43852 7.2677C2.51828 7.30073 2.59075 7.34916 2.6518 7.4102L5.25 10.0084L11.7857 3.47379C11.909 3.35051 12.0762 3.28125 12.2505 3.28125C12.4249 3.28125 12.5921 3.35051 12.7154 3.47379C12.8387 3.59708 12.9079 3.76429 12.9079 3.93864C12.9079 4.11299 12.8387 4.2802 12.7154 4.40348L12.7143 4.40239Z"
		fill="#418997" />
</svg>