<svg xmlns="http://www.w3.org/2000/svg" width="14" height="14" viewBox="0 0 14 14" fill="none">
	<path
		d="M13.1392 10.1775L8.3568 1.87212C8.21828 1.63522 8.02014 1.43872 7.7821 1.30216C7.54407 1.1656 7.27443 1.09375 7 1.09375C6.72557 1.09375 6.45593 1.1656 6.21789 1.30216C5.97986 1.43872 5.78172 1.63522 5.6432 1.87212L0.86078 10.1775C0.72637 10.4074 0.655531 10.6689 0.655531 10.9352C0.655531 11.2015 0.72637 11.463 0.86078 11.6929C0.997767 11.931 1.19563 12.1283 1.43406 12.2647C1.67249 12.4011 1.94291 12.4716 2.21758 12.4689H11.7824C12.0569 12.4714 12.3271 12.4008 12.5653 12.2644C12.8035 12.1281 13.0012 11.9308 13.1381 11.6929C13.2727 11.4631 13.3437 11.2017 13.3439 10.9354C13.3441 10.6691 13.2735 10.4075 13.1392 10.1775ZM12.0017 11.0361C11.9795 11.074 11.9474 11.1052 11.9089 11.1264C11.8704 11.1475 11.8269 11.1579 11.783 11.1564H2.21758C2.17366 11.1579 2.13015 11.1475 2.09164 11.1264C2.05314 11.1052 2.02107 11.074 1.99883 11.0361C1.97996 11.0054 1.96997 10.9701 1.96997 10.9341C1.96997 10.8981 1.97996 10.8628 1.99883 10.8321L6.78125 2.52673C6.80493 2.49028 6.83735 2.46032 6.87555 2.43958C6.91375 2.41885 6.95653 2.40798 7 2.40798C7.04347 2.40798 7.08625 2.41885 7.12445 2.43958C7.16265 2.46032 7.19507 2.49028 7.21875 2.52673L12.0006 10.8321C12.0197 10.8627 12.0298 10.8979 12.03 10.934C12.0302 10.97 12.0204 11.0053 12.0017 11.0361ZM6.34375 7.43767V5.68767C6.34375 5.51362 6.41289 5.3467 6.53596 5.22363C6.65903 5.10056 6.82595 5.03142 7 5.03142C7.17405 5.03142 7.34097 5.10056 7.46404 5.22363C7.58711 5.3467 7.65625 5.51362 7.65625 5.68767V7.43767C7.65625 7.61172 7.58711 7.77863 7.46404 7.90171C7.34097 8.02478 7.17405 8.09392 7 8.09392C6.82595 8.09392 6.65903 8.02478 6.53596 7.90171C6.41289 7.77863 6.34375 7.61172 6.34375 7.43767ZM7.875 9.62517C7.875 9.79823 7.82368 9.9674 7.72754 10.1113C7.63139 10.2552 7.49473 10.3673 7.33485 10.4336C7.17496 10.4998 6.99903 10.5171 6.8293 10.4834C6.65956 10.4496 6.50365 10.3663 6.38128 10.2439C6.25891 10.1215 6.17557 9.9656 6.14181 9.79587C6.10805 9.62614 6.12538 9.4502 6.1916 9.29032C6.25783 9.13043 6.36998 8.99378 6.51388 8.89763C6.65777 8.80148 6.82694 8.75017 7 8.75017C7.23206 8.75017 7.45462 8.84235 7.61872 9.00645C7.78281 9.17054 7.875 9.3931 7.875 9.62517Z"
		fill="white" />
</svg>