<svg xmlns="http://www.w3.org/2000/svg" width="25" height="24" viewBox="0 0 25 24" fill="none">
	<path
		d="M22.0625 19.5C22.0625 19.6492 22.0032 19.7923 21.8977 19.8977C21.7923 20.0032 21.6492 20.0625 21.5 20.0625H3.5C3.35082 20.0625 3.20774 20.0032 3.10225 19.8977C2.99676 19.7923 2.9375 19.6492 2.9375 19.5V4.5C2.9375 4.35082 2.99676 4.20774 3.10225 4.10225C3.20774 3.99676 3.35082 3.9375 3.5 3.9375C3.64918 3.9375 3.79226 3.99676 3.89775 4.10225C4.00324 4.20774 4.0625 4.35082 4.0625 4.5V13.7606L9.12969 9.32625C9.22679 9.24141 9.35009 9.19251 9.47894 9.18773C9.6078 9.18295 9.73438 9.22259 9.8375 9.3L15.4728 13.5262L21.1297 8.57625C21.2429 8.48902 21.3852 8.44817 21.5274 8.46202C21.6697 8.47587 21.8014 8.54337 21.8957 8.6508C21.99 8.75824 22.0398 8.89755 22.0351 9.04042C22.0304 9.18329 21.9715 9.31901 21.8703 9.42L15.8703 14.67C15.7732 14.7548 15.6499 14.8037 15.5211 14.8085C15.3922 14.8133 15.2656 14.7737 15.1625 14.6962L9.52719 10.4738L4.0625 15.255V18.9375H21.5C21.6492 18.9375 21.7923 18.9968 21.8977 19.1023C22.0032 19.2077 22.0625 19.3508 22.0625 19.5Z"
		fill="#4D4D4D" />
</svg>