<svg xmlns="http://www.w3.org/2000/svg" width="25" height="24" viewBox="0 0 25 24" fill="none">
	<path
		d="M20.75 4.6875H4.25002C3.90192 4.6875 3.56808 4.82578 3.32194 5.07192C3.0758 5.31806 2.93752 5.6519 2.93752 6V21C2.93616 21.2502 3.00699 21.4956 3.14151 21.7066C3.27602 21.9176 3.46853 22.0853 3.69596 22.1897C3.86958 22.2702 4.05862 22.3121 4.25002 22.3125C4.55922 22.3127 4.85836 22.2027 5.09377 22.0022L5.10221 21.9947L8.11533 19.3538C8.14907 19.3267 8.19114 19.3121 8.23439 19.3125H20.75C21.0981 19.3125 21.432 19.1742 21.6781 18.9281C21.9242 18.6819 22.0625 18.3481 22.0625 18V6C22.0625 5.6519 21.9242 5.31806 21.6781 5.07192C21.432 4.82578 21.0981 4.6875 20.75 4.6875ZM20.9375 18C20.9375 18.0497 20.9178 18.0974 20.8826 18.1326C20.8474 18.1677 20.7997 18.1875 20.75 18.1875H8.23439C7.92562 18.1879 7.62686 18.2971 7.39064 18.4959L7.38221 18.5034L4.36721 21.1444C4.33976 21.1663 4.30669 21.1802 4.27177 21.1842C4.23685 21.1883 4.20149 21.1825 4.16972 21.1675C4.13795 21.1524 4.11105 21.1287 4.09209 21.0991C4.07314 21.0695 4.06289 21.0352 4.06252 21V6C4.06252 5.95027 4.08227 5.90258 4.11744 5.86742C4.1526 5.83225 4.20029 5.8125 4.25002 5.8125H20.75C20.7997 5.8125 20.8474 5.83225 20.8826 5.86742C20.9178 5.90258 20.9375 5.95027 20.9375 6V18ZM13.4375 12C13.4375 12.1854 13.3825 12.3667 13.2795 12.5208C13.1765 12.675 13.0301 12.7952 12.8588 12.8661C12.6875 12.9371 12.499 12.9557 12.3171 12.9195C12.1353 12.8833 11.9682 12.794 11.8371 12.6629C11.706 12.5318 11.6167 12.3648 11.5805 12.1829C11.5444 12.001 11.5629 11.8125 11.6339 11.6412C11.7048 11.4699 11.825 11.3235 11.9792 11.2205C12.1333 11.1175 12.3146 11.0625 12.5 11.0625C12.7487 11.0625 12.9871 11.1613 13.1629 11.3371C13.3387 11.5129 13.4375 11.7514 13.4375 12ZM9.31252 12C9.31252 12.1854 9.25754 12.3667 9.15452 12.5208C9.05151 12.675 8.90509 12.7952 8.73378 12.8661C8.56248 12.9371 8.37398 12.9557 8.19212 12.9195C8.01026 12.8833 7.84322 12.794 7.71211 12.6629C7.58099 12.5318 7.49171 12.3648 7.45553 12.1829C7.41936 12.001 7.43792 11.8125 7.50888 11.6412C7.57984 11.4699 7.7 11.3235 7.85417 11.2205C8.00834 11.1175 8.1896 11.0625 8.37502 11.0625C8.62366 11.0625 8.86212 11.1613 9.03793 11.3371C9.21375 11.5129 9.31252 11.7514 9.31252 12ZM17.5625 12C17.5625 12.1854 17.5075 12.3667 17.4045 12.5208C17.3015 12.675 17.1551 12.7952 16.9838 12.8661C16.8125 12.9371 16.624 12.9557 16.4421 12.9195C16.2603 12.8833 16.0932 12.794 15.9621 12.6629C15.831 12.5318 15.7417 12.3648 15.7055 12.1829C15.6694 12.001 15.6879 11.8125 15.7589 11.6412C15.8298 11.4699 15.95 11.3235 16.1042 11.2205C16.2583 11.1175 16.4396 11.0625 16.625 11.0625C16.8737 11.0625 17.1121 11.1613 17.2879 11.3371C17.4637 11.5129 17.5625 11.7514 17.5625 12Z"
		fill="#4D4D4D" />
</svg>