<svg
	xmlns="http://www.w3.org/2000/svg"
	width="80"
	height="12"
	viewBox="0 0 80 12"
	fill="none"
>
	<path
		d="M0 11.7713H4.05801C8.09844 11.7713 10.2065 9.46628 10.2065 6.0176C10.2065 2.56892 8.09844 0.263929 4.05801 0.263929H0V11.7713ZM2.84587 9.13197V2.90323H4.05801C6.3593 2.90323 7.32549 4.09971 7.32549 6.0176C7.32549 7.93548 6.3593 9.13197 4.05801 9.13197H2.84587Z"
		fill="white"
	/>
	<path
		d="M16.5068 12C19.2473 12 21.1796 10.0645 21.1796 7.42522C21.1796 4.78592 19.2473 2.85044 16.5068 2.85044C13.7663 2.85044 11.8339 4.78592 11.8339 7.42522C11.8339 10.0645 13.7663 12 16.5068 12ZM16.5068 9.53666C15.3122 9.53666 14.5041 8.67449 14.5041 7.42522C14.5041 6.17595 15.3122 5.31378 16.5068 5.31378C17.7013 5.31378 18.5094 6.17595 18.5094 7.42522C18.5094 8.67449 17.7013 9.53666 16.5068 9.53666Z"
		fill="white"
	/>
	<path
		d="M26.7105 12C28.8713 12 30.3469 10.8211 30.3469 8.34018V8.07625H27.7119V8.34018C27.7119 9.25513 27.2903 9.53666 26.7105 9.53666C26.1308 9.53666 25.7092 9.25513 25.7092 8.34018V5.45455H29.8199V3.07918H25.7092V0H23.0741V8.34018C23.0741 10.8211 24.5498 12 26.7105 12Z"
		fill="white"
	/>
	<path
		d="M34.885 11.7713H37.7309V2.90323H40.8754V0.263929H31.7581V2.90323H34.885V11.7713Z"
		fill="white"
	/>
	<path
		d="M41.8668 11.7713H44.5019V6.82698C44.5019 5.66569 45.0289 5.31378 45.7667 5.31378C46.5046 5.31378 47.0316 5.66569 47.0316 6.82698V6.89736H49.6666V6.84458C49.6491 4.09971 48.0856 2.85044 45.7667 2.85044C43.4479 2.85044 41.8668 4.1173 41.8668 6.82698V11.7713Z"
		fill="white"
	/>
	<path
		d="M55.5847 12C57.7455 12 59.3968 10.8035 59.9589 9.0088H57.236C56.9022 9.48387 56.3401 9.64223 55.5847 9.64223C54.6361 9.64223 53.8631 9.18475 53.6523 8.16422H60.2049V7.42522C60.2049 4.78592 58.3252 2.85044 55.5847 2.85044C52.8442 2.85044 50.9119 4.78592 50.9119 7.42522C50.9119 10.0645 52.8442 12 55.5847 12ZM53.705 6.49267C53.9685 5.6129 54.6712 5.20821 55.5847 5.20821C56.4982 5.20821 57.2009 5.59531 57.4995 6.49267H53.705Z"
		fill="white"
	/>
	<path
		d="M66.4221 12C68.5829 12 70.2342 10.8035 70.7963 9.0088H68.0734C67.7397 9.48387 67.1775 9.64223 66.4221 9.64223C65.4735 9.64223 64.7005 9.18475 64.4897 8.16422H71.0423V7.42522C71.0423 4.78592 69.1626 2.85044 66.4221 2.85044C63.6816 2.85044 61.7493 4.78592 61.7493 7.42522C61.7493 10.0645 63.6816 12 66.4221 12ZM64.5424 6.49267C64.8059 5.6129 65.5086 5.20821 66.4221 5.20821C67.3356 5.20821 68.0383 5.59531 68.3369 6.49267H64.5424Z"
		fill="white"
	/>
	<path
		d="M76.2933 12C78.5244 12 80 10.8035 80 9.0088C80 6.95015 78.0852 6.61584 76.8379 6.43988C76.0298 6.31672 75.3974 6.24633 75.3974 5.71848C75.3974 5.36657 75.6609 5.03226 76.3109 5.03226C76.8379 5.03226 77.1893 5.261 77.2595 5.66569H79.8243C79.7716 4.09971 78.4365 2.85044 76.2758 2.85044C74.115 2.85044 72.7272 4.08211 72.7272 5.84164C72.7272 7.93548 74.6947 8.23461 75.8893 8.41056C76.6974 8.53373 77.3298 8.58651 77.3298 9.16716C77.3298 9.53666 77.0663 9.81818 76.2582 9.81818C75.538 9.81818 75.2042 9.58944 75.1866 9.13197H72.5867C72.6218 10.8035 74.0623 12 76.2933 12Z"
		fill="white"
	/>
</svg>