<svg xmlns="http://www.w3.org/2000/svg" width="25" height="24" viewBox="0 0 25 24" fill="none">
	<path
		d="M23.5278 3.74992C23.5196 3.61263 23.4613 3.48311 23.3641 3.38586C23.2668 3.2886 23.1373 3.23035 23 3.22211C18.2187 2.94086 14.3862 4.38649 12.7484 7.09024C11.6581 8.89117 11.6816 11.0915 12.7981 13.184C12.0822 14.0036 11.5832 14.9896 11.3469 16.0518L9.49061 14.1946C10.2547 12.6852 10.25 11.1055 9.46062 9.80242C8.25968 7.81961 5.46874 6.75649 1.99061 6.96274C1.85317 6.97099 1.72353 7.02938 1.62625 7.12683C1.52897 7.22428 1.47082 7.35403 1.4628 7.49149C1.25843 10.9687 2.31968 13.7596 4.30249 14.9606C4.94827 15.3552 5.69065 15.5635 6.44749 15.5624C7.23128 15.5544 8.00215 15.3617 8.69749 14.9999L11.1875 17.4824V20.2499C11.1875 20.3991 11.2468 20.5422 11.3522 20.6477C11.4577 20.7532 11.6008 20.8124 11.75 20.8124C11.8992 20.8124 12.0422 20.7532 12.1477 20.6477C12.2532 20.5422 12.3125 20.3991 12.3125 20.2499V17.4852C12.3087 16.1966 12.7663 14.9492 13.6025 13.9687C14.6534 14.5246 15.7325 14.804 16.7731 14.804C17.791 14.8073 18.7899 14.5293 19.6597 14.0005C22.3634 12.3646 23.8091 8.53117 23.5278 3.74992ZM4.88561 13.9977C3.35655 13.0724 2.5053 10.8749 2.56249 8.06242C5.37499 8.00149 7.56968 8.85367 8.49499 10.3827C9.02749 11.2612 9.07249 12.2934 8.63937 13.3443L6.14749 10.8515C6.04194 10.7459 5.89879 10.6866 5.74952 10.6866C5.60025 10.6866 5.4571 10.7459 5.35155 10.8515C5.246 10.957 5.18671 11.1002 5.18671 11.2495C5.18671 11.3987 5.246 11.5419 5.35155 11.6474L7.84718 14.1421C6.79624 14.5752 5.76405 14.5312 4.88561 13.9977ZM19.0775 13.0396C17.6956 13.8759 16.0644 13.9002 14.4209 13.124L19.6484 7.89742C19.7007 7.84516 19.7421 7.78312 19.7704 7.71483C19.7987 7.64655 19.8133 7.57337 19.8133 7.49946C19.8133 7.42555 19.7987 7.35236 19.7704 7.28408C19.7421 7.21579 19.7007 7.15375 19.6484 7.10149C19.5962 7.04923 19.5341 7.00777 19.4658 6.97948C19.3976 6.9512 19.3244 6.93664 19.2505 6.93664C19.1765 6.93664 19.1034 6.9512 19.0351 6.97948C18.9668 7.00777 18.9048 7.04923 18.8525 7.10149L13.625 12.329C12.8487 10.6855 12.875 9.0543 13.7094 7.67336C15.0706 5.42336 18.3087 4.18774 22.4281 4.3218C22.5622 8.43742 21.3256 11.6774 19.0775 13.0396Z"
		fill="#4D4D4D" />
</svg>