<svg
    xmlns="http://www.w3.org/2000/svg"
    width="14"
    height="14"
    viewBox="0 0 14 14"
    fill="none"
>
    <path
        d="M12.6286 11.5933C11.7957 10.1534 10.5121 9.12086 9.01426 8.63141C9.75518 8.19033 10.3308 7.51823 10.6528 6.71833C10.9748 5.91842 11.0253 5.03494 10.7966 4.20356C10.5678 3.37217 10.0725 2.63886 9.38667 2.11623C8.70083 1.5936 7.86239 1.31055 7.00012 1.31055C6.13784 1.31055 5.29941 1.5936 4.61357 2.11623C3.92773 2.63886 3.43241 3.37217 3.20368 4.20356C2.97495 5.03494 3.02545 5.91842 3.34742 6.71833C3.6694 7.51823 4.24505 8.19033 4.98598 8.63141C3.48809 9.12032 2.20457 10.1528 1.37168 11.5933C1.34114 11.6431 1.32088 11.6985 1.3121 11.7563C1.30332 11.814 1.3062 11.873 1.32056 11.9296C1.33493 11.9862 1.36049 12.0394 1.39574 12.086C1.43099 12.1326 1.47521 12.1716 1.5258 12.2009C1.57639 12.2301 1.63232 12.2489 1.69029 12.2561C1.74826 12.2634 1.8071 12.259 1.86333 12.2431C1.91956 12.2272 1.97205 12.2003 2.0177 12.1638C2.06334 12.1274 2.10122 12.0821 2.1291 12.0308C3.15941 10.2502 4.98051 9.18703 7.00012 9.18703C9.01973 9.18703 10.8408 10.2502 11.8711 12.0308C11.899 12.0821 11.9369 12.1274 11.9825 12.1638C12.0282 12.2003 12.0807 12.2272 12.1369 12.2431C12.1931 12.259 12.252 12.2634 12.3099 12.2561C12.3679 12.2489 12.4238 12.2301 12.4744 12.2009C12.525 12.1716 12.5692 12.1326 12.6045 12.086C12.6397 12.0394 12.6653 11.9862 12.6797 11.9296C12.694 11.873 12.6969 11.814 12.6881 11.7563C12.6794 11.6985 12.6591 11.6431 12.6286 11.5933ZM3.93762 5.24953C3.93762 4.64383 4.11723 4.05173 4.45374 3.5481C4.79025 3.04448 5.26855 2.65195 5.82815 2.42015C6.38775 2.18836 7.00351 2.12771 7.59758 2.24588C8.19165 2.36405 8.73733 2.65572 9.16563 3.08402C9.59393 3.51232 9.8856 4.058 10.0038 4.65207C10.1219 5.24614 10.0613 5.8619 9.8295 6.4215C9.5977 6.9811 9.20518 7.4594 8.70155 7.79591C8.19793 8.13242 7.60582 8.31203 7.00012 8.31203C6.18816 8.31117 5.4097 7.98823 4.83556 7.41409C4.26142 6.83995 3.93849 6.06149 3.93762 5.24953Z"
        fill="#989898"
    />
</svg>