<svg width="59" height="12" viewBox="0 0 59 12" fill="none" xmlns="http://www.w3.org/2000/svg">
	<path
		d="M8.78 1.116V1.86H2.204V1.116H8.78ZM8.204 8.424H2.756V10.14H8.204V8.424ZM1.88 11.4V7.668H9.116V11.364H8.204V10.896H2.756V11.4H1.88ZM2.012 6.744V6.012H8.948V6.744H2.012ZM8.948 4.392V5.136H2.012V4.392H8.948ZM0.176 2.736H10.856V3.516H0.176V2.736ZM15.776 0.875999V1.596H12.5V0.875999H15.776ZM15.056 8.124H13.184V10.128H15.056V8.124ZM15.836 7.392V10.86H13.184V11.4H12.404V7.392H15.836ZM12.428 6.468V5.76H15.788V6.468H12.428ZM15.788 4.128V4.836H12.428V4.128H15.788ZM11.864 3.204V2.472H16.196V3.204H11.864ZM21.284 7.932H17.948V10.056H21.284V7.932ZM17.108 11.412V7.14H22.148V11.364H21.284V10.86H17.948V11.412H17.108ZM20.972 3.684H18.992C18.884 4.32 18.776 4.92 18.668 5.424H20.972V3.684ZM21.824 5.424H22.88V6.216H16.244V5.424H17.804C17.912 4.92 18.032 4.308 18.14 3.684H16.784V2.916H18.26C18.332 2.496 18.392 2.076 18.452 1.68H16.604V0.9H22.496V1.68H19.328C19.268 2.076 19.196 2.496 19.124 2.916H21.824V5.424ZM28.76 1.008C28.688 1.368 28.592 1.836 28.412 2.4C29.636 2.34 30.944 2.232 32.072 2.028L32.06 2.916C30.872 3.108 29.384 3.204 28.076 3.252C27.8 3.888 27.404 4.572 26.996 5.112C27.452 4.824 28.148 4.668 28.664 4.668C29.444 4.668 30.08 5.052 30.272 5.748C31.088 5.352 31.82 5.064 32.444 4.776C32.804 4.62 33.092 4.488 33.428 4.308L33.824 5.208C33.512 5.292 33.08 5.46 32.756 5.592C32.084 5.844 31.232 6.192 30.32 6.624C30.332 7.32 30.344 8.34 30.356 8.928H29.432C29.456 8.472 29.468 7.692 29.468 7.056C28.352 7.644 27.572 8.28 27.572 9.072C27.572 10.008 28.508 10.152 29.744 10.152C30.68 10.152 31.964 10.044 33.02 9.864L32.996 10.824C32.084 10.944 30.752 11.04 29.708 11.04C27.992 11.04 26.612 10.668 26.612 9.204C26.612 7.788 28.04 6.9 29.444 6.168C29.324 5.652 28.892 5.424 28.352 5.424C27.596 5.424 26.828 5.796 26.288 6.3C25.94 6.624 25.604 7.068 25.196 7.548L24.38 6.948C25.892 5.484 26.696 4.248 27.152 3.276C26.972 3.276 26.792 3.276 26.624 3.276C26.108 3.276 25.316 3.252 24.656 3.204V2.304C25.292 2.388 26.132 2.436 26.684 2.436C26.936 2.436 27.212 2.436 27.476 2.424C27.644 1.908 27.752 1.368 27.776 0.924L28.76 1.008ZM39.704 0.875999V1.596H36.248V0.875999H39.704ZM40.148 2.448V3.18H35.624V2.448H40.148ZM38.948 7.992H36.944V10.008H38.948V7.992ZM39.728 7.26V10.728H36.944V11.28H36.164V7.26H39.728ZM36.188 6.372V5.652H39.74V6.372H36.188ZM36.188 4.776V4.068H39.74V4.776H36.188ZM41.936 1.632V2.292C41.936 3.324 41.672 4.584 40.4 5.424C40.268 5.268 39.932 4.956 39.752 4.836C40.904 4.104 41.084 3.108 41.084 2.28V0.839999H44.828V3.768C44.828 4.032 44.864 4.08 45.056 4.08H45.656C45.872 4.08 45.92 3.924 45.944 2.772C46.112 2.916 46.46 3.048 46.688 3.096C46.616 4.5 46.4 4.848 45.764 4.848H44.936C44.204 4.848 43.988 4.62 43.988 3.768V1.632H41.936ZM45.392 5.58L45.968 5.808C45.56 7.284 44.852 8.448 43.94 9.348C44.72 9.936 45.644 10.38 46.7 10.644C46.508 10.824 46.244 11.184 46.124 11.4C45.032 11.076 44.084 10.584 43.268 9.924C42.38 10.608 41.348 11.088 40.256 11.412C40.172 11.196 39.944 10.812 39.776 10.632C40.796 10.368 41.768 9.936 42.608 9.312C41.9 8.58 41.336 7.704 40.928 6.696L41.72 6.456C42.068 7.332 42.596 8.112 43.268 8.772C43.94 8.136 44.48 7.356 44.84 6.432H40.304V5.616H45.236L45.392 5.58ZM48.896 2.676V4.428H48.02V1.836H52.52V0.468H53.444V1.836H57.98V4.428H57.068V2.676H48.896ZM53.444 7.776V10.224C54.032 10.332 54.692 10.368 55.388 10.368C55.82 10.368 57.884 10.368 58.46 10.356C58.316 10.572 58.16 10.992 58.124 11.256H55.34C52.856 11.256 51.068 10.824 49.976 8.796C49.556 9.9 48.968 10.788 48.188 11.472C48.044 11.316 47.672 11.004 47.456 10.872C48.788 9.84 49.436 8.136 49.7 5.988L50.612 6.072C50.54 6.636 50.444 7.164 50.324 7.668C50.78 8.928 51.548 9.612 52.532 9.984V4.956H49.556V4.116H56.504V4.956H53.444V6.948H56.996V7.776H53.444Z"
		fill="#1B1B1B" />
</svg>