<svg xmlns="http://www.w3.org/2000/svg" width="20" height="20" viewBox="0 0 20 20" fill="none">
    <path
        d="M14.192 10.4425L7.94205 16.6925C7.88398 16.7506 7.81504 16.7967 7.73917 16.8281C7.6633 16.8595 7.58198 16.8757 7.49986 16.8757C7.41774 16.8757 7.33642 16.8595 7.26055 16.8281C7.18468 16.7967 7.11574 16.7506 7.05767 16.6925C6.9996 16.6345 6.95354 16.5655 6.92211 16.4897C6.89069 16.4138 6.87451 16.3325 6.87451 16.2503C6.87451 16.1682 6.89069 16.0869 6.92211 16.011C6.95354 15.9352 6.9996 15.8662 7.05767 15.8082L12.8663 10.0003L7.05767 4.19253C6.9404 4.07526 6.87451 3.9162 6.87451 3.75035C6.87451 3.5845 6.9404 3.42544 7.05767 3.30816C7.17495 3.19088 7.33401 3.125 7.49986 3.125C7.66571 3.125 7.82477 3.19088 7.94205 3.30816L14.192 9.55816C14.2502 9.61621 14.2963 9.68514 14.3277 9.76101C14.3592 9.83688 14.3754 9.91821 14.3754 10.0003C14.3754 10.0825 14.3592 10.1638 14.3277 10.2397C14.2963 10.3156 14.2502 10.3845 14.192 10.4425Z"
        fill="#989898" />
</svg>