<svg xmlns="http://www.w3.org/2000/svg" width="20" height="20" viewBox="0 0 20 20" fill="none">
    <path
        d="M15.625 5.90938V3.125C15.625 2.79348 15.4933 2.47554 15.2589 2.24112C15.0245 2.0067 14.7065 1.875 14.375 1.875H5.625C5.29348 1.875 4.97554 2.0067 4.74112 2.24112C4.5067 2.47554 4.375 2.79348 4.375 3.125V5.9375C4.37542 6.13148 4.42079 6.32273 4.50754 6.49623C4.59429 6.66973 4.72007 6.82077 4.875 6.9375L8.95859 10L4.875 13.0625C4.72007 13.1792 4.59429 13.3303 4.50754 13.5038C4.42079 13.6773 4.37542 13.8685 4.375 14.0625V16.875C4.375 17.2065 4.5067 17.5245 4.74112 17.7589C4.97554 17.9933 5.29348 18.125 5.625 18.125H14.375C14.7065 18.125 15.0245 17.9933 15.2589 17.7589C15.4933 17.5245 15.625 17.2065 15.625 16.875V14.0906C15.6246 13.8974 15.5796 13.7069 15.4935 13.5338C15.4075 13.3608 15.2827 13.2099 15.1289 13.093L11.0367 10L15.1289 6.90625C15.2828 6.78952 15.4076 6.63882 15.4937 6.4659C15.5797 6.29298 15.6247 6.10252 15.625 5.90938ZM14.375 16.875H5.625V14.0625L10 10.7812L14.375 14.0898V16.875ZM14.375 5.90938L10 9.21875L5.625 5.9375V3.125H14.375V5.90938Z"
        fill="#B1B1B1" />
</svg>