<svg xmlns="http://www.w3.org/2000/svg" width="16" height="17" viewBox="0 0 16 17" fill="none">
    <path
        d="M12.3813 4.41307C12.0196 3.54947 11.4107 2.81203 10.6312 2.29339C9.8517 1.77475 8.9363 1.49805 8.00002 1.49805C7.06374 1.49805 6.14834 1.77475 5.36883 2.29339C4.58931 2.81203 3.98046 3.54947 3.61877 4.41307C2.84037 4.77353 2.18071 5.3482 1.71695 6.06984C1.2532 6.79149 1.00452 7.63027 1.00002 8.48807C0.993143 10.9143 2.96002 12.9381 5.38377 13.0006C6.11697 13.0197 6.84366 12.8585 7.50002 12.5312V15.0006C7.50002 15.1332 7.5527 15.2604 7.64646 15.3541C7.74023 15.4479 7.86741 15.5006 8.00002 15.5006C8.13263 15.5006 8.2598 15.4479 8.35357 15.3541C8.44734 15.2604 8.50002 15.1332 8.50002 15.0006V12.5312C9.12115 12.841 9.80593 13.0017 10.5 13.0006H10.6163C13.04 12.9381 15.0069 10.9156 15 8.48932C14.9958 7.63129 14.7473 6.79221 14.2835 6.07031C13.8197 5.34841 13.1599 4.77356 12.3813 4.41307ZM10.5906 12.0006C9.86855 12.0207 9.15813 11.8154 8.55814 11.4131C8.53856 11.4006 8.51918 11.3887 8.50002 11.3774V8.80932L11.2238 7.44807C11.2825 7.41868 11.3349 7.37801 11.378 7.32838C11.421 7.27874 11.4539 7.22111 11.4747 7.15878C11.4954 7.09645 11.5037 7.03064 11.4991 6.9651C11.4944 6.89956 11.4769 6.83558 11.4475 6.77682C11.4181 6.71805 11.3775 6.66565 11.3278 6.6226C11.2782 6.57955 11.2206 6.5467 11.1582 6.52592C11.0959 6.50515 11.0301 6.49685 10.9646 6.50151C10.899 6.50616 10.835 6.52368 10.7763 6.55307L8.50002 7.69182V6.00057C8.50002 5.86796 8.44734 5.74078 8.35357 5.64701C8.2598 5.55325 8.13263 5.50057 8.00002 5.50057C7.86741 5.50057 7.74023 5.55325 7.64646 5.64701C7.5527 5.74078 7.50002 5.86796 7.50002 6.00057V9.19182L5.22377 8.05307C5.10508 7.99373 4.96769 7.98396 4.8418 8.02592C4.71592 8.06788 4.61186 8.15813 4.55252 8.27682C4.49318 8.3955 4.48341 8.5329 4.52537 8.65878C4.56733 8.78467 4.65758 8.88873 4.77627 8.94807L7.50002 10.3093V11.3756C7.48043 11.3868 7.46106 11.3987 7.44189 11.4112C6.84197 11.8138 6.13164 12.0198 5.40939 12.0006C4.61891 11.9808 3.85841 11.694 3.25178 11.1868C2.64514 10.6796 2.22814 9.98191 2.06869 9.20743C1.90924 8.43294 2.01675 7.62728 2.37369 6.9217C2.73064 6.21613 3.31599 5.65221 4.03439 5.32182C4.2616 5.21772 4.44124 5.03183 4.53752 4.80119C4.82292 4.11911 5.30359 3.53661 5.9191 3.12694C6.53462 2.71726 7.25751 2.49868 7.99689 2.49868C8.73628 2.49868 9.45917 2.71726 10.0747 3.12694C10.6902 3.53661 11.1709 4.11911 11.4563 4.80119C11.5525 5.03183 11.7322 5.21772 11.9594 5.32182C12.6778 5.65221 13.2631 6.21613 13.6201 6.9217C13.977 7.62728 14.0845 8.43294 13.9251 9.20743C13.7656 9.98191 13.3486 10.6796 12.742 11.1868C12.1354 11.694 11.3749 11.9808 10.5844 12.0006H10.5906Z"
        fill="#418997" />
</svg>