<svg xmlns="http://www.w3.org/2000/svg" width="25" height="24" viewBox="0 0 25 24" fill="none">
	<path
		d="M20.0306 18.2198C20.1002 18.2895 20.1555 18.3722 20.1932 18.4632C20.2309 18.5543 20.2503 18.6519 20.2503 18.7504C20.2503 18.849 20.2309 18.9465 20.1932 19.0376C20.1555 19.1286 20.1002 19.2114 20.0306 19.281C19.9609 19.3507 19.8781 19.406 19.7871 19.4437C19.6961 19.4814 19.5985 19.5008 19.4999 19.5008C19.4014 19.5008 19.3038 19.4814 19.2128 19.4437C19.1217 19.406 19.039 19.3507 18.9693 19.281L12.7499 13.0607L6.53055 19.281C6.38982 19.4218 6.19895 19.5008 5.99993 19.5008C5.80091 19.5008 5.61003 19.4218 5.4693 19.281C5.32857 19.1403 5.24951 18.9494 5.24951 18.7504C5.24951 18.5514 5.32857 18.3605 5.4693 18.2198L11.6896 12.0004L5.4693 5.78104C5.32857 5.64031 5.24951 5.44944 5.24951 5.25042C5.24951 5.05139 5.32857 4.86052 5.4693 4.71979C5.61003 4.57906 5.80091 4.5 5.99993 4.5C6.19895 4.5 6.38982 4.57906 6.53055 4.71979L12.7499 10.9401L18.9693 4.71979C19.11 4.57906 19.3009 4.5 19.4999 4.5C19.699 4.5 19.8898 4.57906 20.0306 4.71979C20.1713 4.86052 20.2503 5.05139 20.2503 5.25042C20.2503 5.44944 20.1713 5.64031 20.0306 5.78104L13.8102 12.0004L20.0306 18.2198Z"
		fill="#E71A41" />
</svg>