<svg xmlns="http://www.w3.org/2000/svg" width="25" height="24" viewBox="0 0 25 24" fill="none">
	<path
		d="M21.5603 6.87915L17.3716 2.68946C17.2323 2.55014 17.0669 2.43962 16.8849 2.36421C16.7029 2.28881 16.5078 2.25 16.3108 2.25C16.1138 2.25 15.9187 2.28881 15.7367 2.36421C15.5547 2.43962 15.3893 2.55014 15.25 2.68946L3.68969 14.2507C3.5498 14.3895 3.43889 14.5547 3.36341 14.7367C3.28792 14.9188 3.24938 15.114 3.25001 15.311V19.5007C3.25001 19.8985 3.40804 20.2801 3.68935 20.5614C3.97065 20.8427 4.35218 21.0007 4.75001 21.0007H8.9397C9.13675 21.0013 9.33197 20.9628 9.51399 20.8873C9.69602 20.8118 9.86122 20.7009 10 20.561L21.5603 9.00071C21.6996 8.86142 21.8102 8.69604 21.8856 8.51403C21.961 8.33202 21.9998 8.13694 21.9998 7.93993C21.9998 7.74292 21.961 7.54784 21.8856 7.36583C21.8102 7.18382 21.6996 7.01844 21.5603 6.87915ZM8.9397 19.5007H4.75001V15.311L13 7.06102L17.1897 11.2507L8.9397 19.5007ZM18.25 10.1895L14.0603 6.00071L16.3103 3.75071L20.5 7.93946L18.25 10.1895Z"
		fill="#808080" />
</svg>