<svg xmlns="http://www.w3.org/2000/svg" width="65" height="64" viewBox="0 0 65 64" fill="none">
    <path
        d="M62.4077 9.97265C62.3792 9.48337 62.1719 9.02161 61.8254 8.67504C61.4788 8.32847 61.017 8.12123 60.5277 8.09265C47.5877 7.34265 37.1977 11.2777 32.7327 18.6477C29.7827 23.5202 29.7877 29.4377 32.6927 35.0827C31.0392 37.0511 29.8308 39.3536 29.1502 41.8327L25.0827 37.7502C27.0377 33.6677 26.9627 29.4127 24.8327 25.8777C21.5327 20.4302 13.9152 17.5102 4.45774 18.0652C3.96845 18.0937 3.50669 18.301 3.16012 18.6475C2.81355 18.9941 2.60631 19.4559 2.57774 19.9452C2.02024 29.4027 4.94274 37.0202 10.3902 40.3202C12.1879 41.4185 14.2536 41.9998 16.3602 42.0002C18.405 41.975 20.4179 41.4905 22.2502 40.5827L28.5002 46.8327V54.0002C28.5002 54.5306 28.711 55.0393 29.086 55.4144C29.4611 55.7894 29.9698 56.0002 30.5002 56.0002C31.0307 56.0002 31.5394 55.7894 31.9144 55.4144C32.2895 55.0393 32.5002 54.5306 32.5002 54.0002V46.6277C32.4913 43.4459 33.5741 40.3574 35.5677 37.8777C38.1401 39.222 40.993 39.9414 43.8952 39.9777C46.7012 39.9867 49.455 39.2202 51.8527 37.7627C59.2227 33.3027 63.1677 22.9127 62.4077 9.97265ZM12.4527 36.9002C8.61774 34.5777 6.44774 29.0802 6.50024 22.0002C13.5802 21.9402 19.0777 24.1177 21.4002 27.9527C22.6127 29.9527 22.8102 32.2852 22.0152 34.6877L15.9127 28.5852C15.5346 28.2259 15.0311 28.0286 14.5096 28.0353C13.9881 28.042 13.4898 28.2521 13.121 28.6209C12.7522 28.9897 12.542 29.488 12.5354 30.0095C12.5287 30.531 12.726 31.0345 13.0852 31.4127L19.1877 37.5152C16.7852 38.3102 14.4552 38.1127 12.4527 36.9002ZM49.7802 34.3452C46.4302 36.3727 42.4927 36.5277 38.4927 34.8452L51.9152 21.4202C52.2745 21.042 52.4718 20.5385 52.4651 20.017C52.4584 19.4955 52.2483 18.9972 51.8795 18.6284C51.5107 18.2596 51.0124 18.0495 50.4909 18.0428C49.9694 18.0361 49.4659 18.2334 49.0877 18.5927L35.6627 32.0002C33.9727 28.0002 34.1252 24.0602 36.1627 20.7127C39.6477 14.9627 47.9127 11.7577 58.4952 12.0052C58.7352 22.5852 55.5352 30.8602 49.7802 34.3452Z"
        fill="#7F7F7F" />
</svg>