<svg width="20" height="20" viewBox="0 0 20 20" fill="none" xmlns="http://www.w3.org/2000/svg">
<path d="M16.6925 7.94254L10.4425 14.1925C10.3845 14.2506 10.3156 14.2967 10.2397 14.3282C10.1638 14.3597 10.0825 14.3758 10.0003 14.3758C9.91821 14.3758 9.83688 14.3597 9.76101 14.3282C9.68514 14.2967 9.61621 14.2506 9.55816 14.1925L3.30816 7.94254C3.19088 7.82526 3.125 7.6662 3.125 7.50035C3.125 7.3345 3.19088 7.17544 3.30816 7.05816C3.42544 6.94088 3.5845 6.875 3.75035 6.875C3.9162 6.875 4.07526 6.94088 4.19253 7.05816L10.0003 12.8668L15.8082 7.05816C15.8662 7.00009 15.9352 6.95403 16.011 6.9226C16.0869 6.89117 16.1682 6.875 16.2503 6.875C16.3325 6.875 16.4138 6.89117 16.4897 6.9226C16.5655 6.95403 16.6345 7.00009 16.6925 7.05816C16.7506 7.11623 16.7967 7.18517 16.8281 7.26104C16.8595 7.33691 16.8757 7.41823 16.8757 7.50035C16.8757 7.58247 16.8595 7.66379 16.8281 7.73966C16.7967 7.81553 16.7506 7.88447 16.6925 7.94254Z" fill="#B1B1B1"/>
</svg>
