<svg xmlns="http://www.w3.org/2000/svg" width="16" height="16" viewBox="0 0 16 16" fill="none">
    <path
        d="M11.354 8.35378L6.35403 13.3538C6.30757 13.4002 6.25242 13.4371 6.19173 13.4622C6.13103 13.4874 6.06598 13.5003 6.00028 13.5003C5.93458 13.5003 5.86953 13.4874 5.80883 13.4622C5.74813 13.4371 5.69298 13.4002 5.64653 13.3538C5.60007 13.3073 5.56322 13.2522 5.53808 13.1915C5.51294 13.1308 5.5 13.0657 5.5 13C5.5 12.9343 5.51294 12.8693 5.53808 12.8086C5.56322 12.7479 5.60007 12.6927 5.64653 12.6463L10.2934 8.00003L5.64653 3.35378C5.55271 3.25996 5.5 3.13272 5.5 3.00003C5.5 2.86735 5.55271 2.7401 5.64653 2.64628C5.74035 2.55246 5.8676 2.49976 6.00028 2.49976C6.13296 2.49976 6.26021 2.55246 6.35403 2.64628L11.354 7.64628C11.4005 7.69272 11.4374 7.74786 11.4626 7.80856C11.4877 7.86926 11.5007 7.93433 11.5007 8.00003C11.5007 8.06574 11.4877 8.13081 11.4626 8.1915C11.4374 8.2522 11.4005 8.30735 11.354 8.35378Z"
        fill="#1B1B1B" />
</svg>