<svg xmlns="http://www.w3.org/2000/svg" width="20" height="20" viewBox="0 0 20 20" fill="none">
    <path
        d="M10 1.875C8.39303 1.875 6.82214 2.35152 5.486 3.24431C4.14985 4.1371 3.10844 5.40605 2.49348 6.8907C1.87852 8.37535 1.71762 10.009 2.03112 11.5851C2.34463 13.1612 3.11846 14.6089 4.25476 15.7452C5.39106 16.8815 6.8388 17.6554 8.4149 17.9689C9.99099 18.2824 11.6247 18.1215 13.1093 17.5065C14.594 16.8916 15.8629 15.8502 16.7557 14.514C17.6485 13.1779 18.125 11.607 18.125 10C18.1227 7.84581 17.266 5.78051 15.7427 4.25727C14.2195 2.73403 12.1542 1.87727 10 1.875ZM16.875 10C16.8757 10.882 16.7059 11.7558 16.375 12.5734L12.8828 10.4258C12.7343 10.3342 12.5682 10.2748 12.3953 10.2516L10.6125 10.0109C10.3668 9.9789 10.1172 10.0201 9.89483 10.1293C9.67247 10.2386 9.48729 10.411 9.3625 10.625H8.68125L8.38438 10.0109C8.30231 9.83995 8.18219 9.69002 8.03324 9.57261C7.88428 9.45521 7.71043 9.37345 7.525 9.33359L6.9 9.19844L7.51094 8.125H8.81641C9.02766 8.12459 9.23538 8.07084 9.42032 7.96875L10.3773 7.44062C10.4614 7.39376 10.54 7.33768 10.6117 7.27344L12.7141 5.37188C12.9248 5.18298 13.0649 4.92788 13.1112 4.64865C13.1575 4.36942 13.1073 4.08276 12.9688 3.83594L12.9406 3.78516C14.117 4.34297 15.1111 5.22296 15.8075 6.32301C16.5039 7.42306 16.8741 8.69805 16.875 10ZM11.1961 3.22969L11.875 4.44531L9.77266 6.34687L8.81641 6.875H7.51094C7.29121 6.87468 7.07527 6.93228 6.8849 7.04201C6.69452 7.15173 6.53643 7.30971 6.42657 7.5L5.74453 8.68984L4.95157 6.57734L5.80625 4.55625C6.56277 3.97171 7.43304 3.55164 8.36132 3.32293C9.28959 3.09423 10.2554 3.06194 11.1969 3.22812L11.1961 3.22969ZM3.125 10C3.12396 8.97814 3.35194 7.96904 3.79219 7.04688L4.67813 9.41172C4.75196 9.60752 4.87376 9.78165 5.03237 9.91815C5.19098 10.0546 5.38132 10.1491 5.58594 10.193L7.26016 10.5531L7.55782 11.1719C7.66112 11.3823 7.82121 11.5597 8.02001 11.6839C8.2188 11.8082 8.44839 11.8744 8.68282 11.875H8.79844L8.2336 13.143C8.13407 13.3662 8.1022 13.6138 8.14191 13.855C8.18162 14.0962 8.29118 14.3204 8.45704 14.5L8.46797 14.5109L10 16.0891L9.84844 16.8703C8.05299 16.8285 6.34497 16.0867 5.08885 14.8031C3.83273 13.5196 3.12798 11.7959 3.125 10ZM11.1391 16.7797L11.2273 16.3258C11.2636 16.1329 11.2543 15.9343 11.2 15.7457C11.1457 15.5571 11.0481 15.3839 10.9148 15.2398C10.911 15.2364 10.9074 15.2327 10.9039 15.2289L9.375 13.6516L10.4453 11.25L12.2281 11.4906L15.8 13.6875C15.2825 14.5002 14.6003 15.1953 13.7975 15.7279C12.9946 16.2605 12.089 16.6188 11.1391 16.7797Z"
        fill="#1B1B1B" />
</svg>