<svg width="16" height="16" viewBox="0 0 16 16" fill="none" xmlns="http://www.w3.org/2000/svg">
<path d="M15.5003 1.75V14.25C15.5003 14.5815 15.3686 14.8995 15.1342 15.1339C14.8998 15.3683 14.5819 15.5 14.2503 15.5H8.62535C8.45959 15.5 8.30061 15.4342 8.1834 15.3169C8.06619 15.1997 8.00035 15.0408 8.00035 14.875C8.00035 14.7092 8.06619 14.5503 8.1834 14.4331C8.30061 14.3158 8.45959 14.25 8.62535 14.25H14.2503V1.75H1.75035V9.25C1.75035 9.41576 1.6845 9.57473 1.56729 9.69194C1.45008 9.80915 1.29111 9.875 1.12535 9.875C0.959587 9.875 0.800616 9.80915 0.683406 9.69194C0.566196 9.57473 0.500347 9.41576 0.500347 9.25V1.75C0.500347 1.41848 0.632043 1.10054 0.866464 0.866116C1.10088 0.631696 1.41883 0.5 1.75035 0.5H14.2503C14.5819 0.5 14.8998 0.631696 15.1342 0.866116C15.3686 1.10054 15.5003 1.41848 15.5003 1.75ZM7.81753 10.0578C7.75949 9.9997 7.69056 9.9536 7.61468 9.92215C7.53881 9.8907 7.45748 9.87451 7.37535 9.87451C7.29321 9.87451 7.21188 9.8907 7.13601 9.92215C7.06014 9.9536 6.9912 9.9997 6.93316 10.0578L3.00035 13.9914L1.56753 12.5578C1.50947 12.4997 1.44053 12.4537 1.36466 12.4223C1.28879 12.3908 1.20747 12.3747 1.12535 12.3747C1.04323 12.3747 0.961908 12.3908 0.886037 12.4223C0.810167 12.4537 0.741229 12.4997 0.68316 12.5578C0.625091 12.6159 0.579028 12.6848 0.547602 12.7607C0.516175 12.8366 0.5 12.9179 0.5 13C0.5 13.0821 0.516175 13.1634 0.547602 13.2393C0.579028 13.3152 0.625091 13.3841 0.68316 13.4422L2.55816 15.3172C2.61621 15.3753 2.68514 15.4214 2.76101 15.4529C2.83688 15.4843 2.91821 15.5005 3.00035 15.5005C3.08248 15.5005 3.16381 15.4843 3.23968 15.4529C3.31556 15.4214 3.38449 15.3753 3.44253 15.3172L7.81753 10.9422C7.87564 10.8841 7.92174 10.8152 7.9532 10.7393C7.98465 10.6635 8.00084 10.5821 8.00084 10.5C8.00084 10.4179 7.98465 10.3365 7.9532 10.2607C7.92174 10.1848 7.87564 10.1159 7.81753 10.0578Z" fill="#1B1B1B"/>
</svg>
