<svg width="204" height="35" viewBox="0 0 204 35" fill="none" xmlns="http://www.w3.org/2000/svg">
<g filter="url(#filter0_d_101_2)">
<path d="M6.59375 13.5938C6.59375 11.1875 6.63542 9.05208 6.71875 7.1875L4.60938 6.85938C4.47396 6.47396 4.36979 6.04688 4.29688 5.57812C4.22396 5.10938 4.1875 4.65625 4.1875 4.21875C4.1875 3.88542 4.21354 3.52083 4.26562 3.125C5.63021 2.64583 7.43229 2.30208 9.67188 2.09375C11.9115 1.88542 14.099 1.78125 16.2344 1.78125C17.8281 1.78125 19.1979 1.90625 20.3438 2.15625C21.4896 2.40625 22.4479 2.97396 23.2188 3.85938C24 4.73438 24.3906 6.04688 24.3906 7.79688C24.3906 8.51562 24.276 9.3125 24.0469 10.1875C23.8177 11.0521 23.5 11.9167 23.0938 12.7812C22.7188 13.5729 22.2917 14.3281 21.8125 15.0469C21.3438 15.7552 20.8542 16.3646 20.3438 16.875C20.6458 17.6667 20.9583 18.3906 21.2812 19.0469C21.6042 19.6927 22.099 20.4792 22.7656 21.4062L24.9531 20.4844C25.7656 21.1823 26.2396 22.1094 26.375 23.2656C26.375 23.3281 26.125 23.625 25.625 24.1562C25.1354 24.6875 24.4948 25.1823 23.7031 25.6406C22.9115 26.0885 22.0208 26.3125 21.0312 26.3125C20.2604 26.3125 19.5677 26.1771 18.9531 25.9062C18.349 25.6354 17.849 25.1615 17.4531 24.4844C17.0677 23.8177 16.7604 23.026 16.5312 22.1094C16.3021 21.1927 16.1406 20.2865 16.0469 19.3906L12.4844 19.2344C12.5781 20.0469 12.6979 20.8854 12.8438 21.75C12.9896 22.6042 13.0781 23.1198 13.1094 23.2969C13.2865 24.3281 13.401 25.0312 13.4531 25.4062C12.974 25.6979 12.3906 25.9219 11.7031 26.0781C11.026 26.2344 10.3333 26.3125 9.625 26.3125C8.8125 26.3125 8.02604 26.2031 7.26562 25.9844C7.03646 25.0677 6.86458 23.4635 6.75 21.1719C6.64583 18.8698 6.59375 16.3438 6.59375 13.5938ZM16.3125 15.4688C16.6771 14.4271 16.9635 13.2969 17.1719 12.0781C17.3906 10.849 17.5885 9.38542 17.7656 7.6875C17.4635 7.57292 17.0677 7.48438 16.5781 7.42188C16.0885 7.35938 15.6146 7.32812 15.1562 7.32812C14.1146 7.32812 13.3333 7.35417 12.8125 7.40625C12.6979 11.3229 12.5729 14.099 12.4375 15.7344L16.3125 15.4688ZM27.0781 16.9219C27.0781 15.1198 27.3802 13.5104 27.9844 12.0938C28.5885 10.6771 29.5208 9.55729 30.7812 8.73438C32.0521 7.90104 33.6354 7.48438 35.5312 7.48438C36.5208 7.48438 37.5104 7.60417 38.5 7.84375C39.4896 8.07292 40.3281 8.45833 41.0156 9C41.651 9.51042 42.1094 10.1875 42.3906 11.0312C42.6823 11.8646 42.8281 12.7917 42.8281 13.8125C42.8281 14.4896 42.7708 15.1823 42.6562 15.8906C42.5312 16.099 42.2865 16.375 41.9219 16.7188C41.5573 17.0521 41.1302 17.3802 40.6406 17.7031C40.151 18.026 39.6771 18.276 39.2188 18.4531C38.7812 18.4844 38.3281 18.5 37.8594 18.5C37.0365 18.5 36.2031 18.4635 35.3594 18.3906C34.5156 18.3177 33.776 18.2344 33.1406 18.1406C33.224 19.026 33.4948 19.7969 33.9531 20.4531C34.4115 21.1094 35.1406 21.4375 36.1406 21.4375C36.2344 21.4375 36.3854 21.4271 36.5938 21.4062C37.2292 21.3438 37.9688 21.1771 38.8125 20.9062C39.6667 20.625 40.5156 20.3021 41.3594 19.9375C41.7552 20.3333 42.0469 20.7292 42.2344 21.125C42.4219 21.5208 42.5521 22.0885 42.625 22.8281C42.3021 23.2031 41.776 23.6615 41.0469 24.2031C40.3281 24.7448 39.4479 25.2344 38.4062 25.6719C37.3646 26.099 36.276 26.3125 35.1406 26.3125C33.4323 26.3125 31.9688 25.901 30.75 25.0781C29.5417 24.2448 28.625 23.1198 28 21.7031C27.3854 20.276 27.0781 18.6823 27.0781 16.9219ZM37.1406 13.3281C36.9948 13.1719 36.75 13.0521 36.4062 12.9688C36.0625 12.875 35.7031 12.8281 35.3281 12.8281C35.026 12.8281 34.7188 12.8542 34.4062 12.9062C34.1042 12.9583 33.9219 13.0156 33.8594 13.0781C33.5052 13.776 33.2812 14.5677 33.1875 15.4531L37.3594 15.0469L37.1406 13.3281ZM46.3906 20.5625C46.3906 18.8646 46.4115 17.5833 46.4531 16.7188C46.4948 15.8438 46.6042 14.5625 46.7812 12.875L44.9688 12.6406C44.75 11.9635 44.6042 11.3594 44.5312 10.8281C44.4688 10.2969 44.4375 9.60938 44.4375 8.76562C44.6042 8.61979 44.8802 8.44792 45.2656 8.25C45.6615 8.04167 46.1302 7.86458 46.6719 7.71875C47.2135 7.5625 47.7604 7.48438 48.3125 7.48438C49.5729 7.48438 50.4635 7.75521 50.9844 8.29688C51.5156 8.83854 51.7812 9.65104 51.7812 10.7344C51.7812 11.3385 51.6927 12.1562 51.5156 13.1875C51.224 14.8438 51.0781 15.7135 51.0781 15.7969C51.0781 15.849 51.1146 15.901 51.1875 15.9531C51.2604 15.9948 51.3385 16.0156 51.4219 16.0156C51.5156 16.0156 51.5781 15.9792 51.6094 15.9062C52.026 14.25 52.4427 12.8646 52.8594 11.75C53.276 10.6354 53.9062 9.64583 54.75 8.78125C55.5938 7.91667 56.6875 7.48438 58.0312 7.48438C59.6979 7.48438 60.8958 7.99479 61.625 9.01562C62.3542 10.026 62.7188 11.3021 62.7188 12.8438C62.7188 14.2188 62.5573 15.5469 62.2344 16.8281C61.9115 18.099 61.5104 19.4271 61.0312 20.8125C61.0521 20.7604 60.9792 20.9635 60.8125 21.4219L60.8438 21.4531L63.125 20.5156C63.9375 21.2135 64.4115 22.1406 64.5469 23.2969C64.5469 23.3698 64.3125 23.6667 63.8438 24.1875C63.3854 24.7083 62.776 25.1927 62.0156 25.6406C61.2552 26.0885 60.3802 26.3125 59.3906 26.3125C58.401 26.3125 57.5938 26.0469 56.9688 25.5156C56.3438 24.9844 56.0312 24.0781 56.0312 22.7969C56.0312 21.776 56.0729 20.4115 56.1562 18.7031C56.2396 16.9948 56.3229 15.6198 56.4062 14.5781C56.1354 14.2865 55.8021 14.1302 55.4062 14.1094C55.0417 14.5781 54.5052 15.5156 53.7969 16.9219C53.0885 18.3281 52.5885 19.3802 52.2969 20.0781C52.276 20.224 52.2656 20.3646 52.2656 20.5C52.2656 21.0208 52.3438 21.724 52.5 22.6094C52.6562 23.4844 52.849 24.3021 53.0781 25.0625C52.8906 25.4167 52.5052 25.7135 51.9219 25.9531C51.3385 26.1927 50.6198 26.3125 49.7656 26.3125C48.9948 26.3125 48.375 26.25 47.9062 26.125C47.4479 26 47.125 25.8698 46.9375 25.7344C46.75 25.5885 46.6562 25.5 46.6562 25.4688C46.6458 25.375 46.6198 25.1302 46.5781 24.7344C46.5365 24.3281 46.4948 23.7656 46.4531 23.0469C46.4115 22.3177 46.3906 21.4896 46.3906 20.5625ZM67.0156 17.375C67.0156 15.6771 67.0417 14.1302 67.0938 12.7344L65.3906 12.4375C65.2552 11.9167 65.1615 11.4583 65.1094 11.0625C65.0573 10.6667 65.0312 10.2448 65.0312 9.79688L65.0625 9.48438C65.0938 9.33854 65.1094 9.21875 65.1094 9.125L67.375 8.625C67.4271 7.97917 67.5469 7.25 67.7344 6.4375C67.9219 5.625 68.1198 5.02604 68.3281 4.64062C68.6615 4.39062 69.0625 4.20312 69.5312 4.07812C70 3.95312 70.5052 3.89062 71.0469 3.89062C71.5052 3.89062 71.9479 3.9375 72.375 4.03125C72.8125 4.11458 73.1927 4.22917 73.5156 4.375C73.5469 4.72917 73.5625 5.13542 73.5625 5.59375C73.5625 6.34375 73.526 7.19271 73.4531 8.14062L76.2031 7.64062C76.5885 8.30729 76.7812 9.03125 76.7812 9.8125C76.7812 10.3542 76.7135 10.8438 76.5781 11.2812C76.4531 11.7188 76.276 12.2135 76.0469 12.7656C75.3594 12.8802 74.4167 12.9531 73.2188 12.9844C73.0729 14.6823 72.75 17.1771 72.25 20.4688L72.1719 21L72.2031 21.0312L75.875 19.8906C76.6354 20.526 77.099 21.5052 77.2656 22.8281C77.2656 22.901 76.9271 23.2448 76.25 23.8594C75.5833 24.4635 74.7448 25.026 73.7344 25.5469C72.724 26.0573 71.625 26.3125 70.4375 26.3125C68.3646 26.3125 67.2604 25.0469 67.125 22.5156C67.0521 21.2344 67.0156 19.5208 67.0156 17.375ZM83.3594 15.7031C83.974 15.7031 84.651 15.7656 85.3906 15.8906C86.1406 16.0156 86.8281 16.1667 87.4531 16.3438V15.8594C87.4531 15.5365 87.4427 15.1771 87.4219 14.7812C87.4115 14.3854 87.3906 14.125 87.3594 14C87.2656 13.8229 86.9948 13.6406 86.5469 13.4531C86.1094 13.2656 85.3906 13.1719 84.3906 13.1719C83.776 13.1719 83.1406 13.25 82.4844 13.4062C81.8385 13.5521 81.1198 13.75 80.3281 14C79.901 13.2917 79.5573 12.6198 79.2969 11.9844C79.0469 11.3385 78.9219 10.6927 78.9219 10.0469C78.9219 9.84896 78.9375 9.65104 78.9688 9.45312C80.6562 8.14062 82.8385 7.48438 85.5156 7.48438C86.9948 7.48438 88.3073 7.65104 89.4531 7.98438C90.599 8.31771 91.5417 8.96354 92.2812 9.92188C93.0208 10.8802 93.3906 12.2396 93.3906 14C93.3906 15.7188 93.1875 17.3854 92.7812 19C92.3854 20.6042 92.1823 21.4219 92.1719 21.4531L94.4375 20.4844C94.7396 20.8073 95.0052 21.2031 95.2344 21.6719C95.474 22.1302 95.625 22.6615 95.6875 23.2656C95.5417 23.5781 95.224 23.9792 94.7344 24.4688C94.2448 24.9479 93.6458 25.375 92.9375 25.75C92.2292 26.125 91.4896 26.3125 90.7188 26.3125C89.8542 26.3125 89.1979 26.0573 88.75 25.5469C88.3125 25.0365 88.0938 24.375 88.0938 23.5625C88.0938 23.1042 88.1615 22.6406 88.2969 22.1719L87.8281 22.0312C87.5365 23.6771 86.9167 24.8021 85.9688 25.4062C85.0208 26.0104 83.974 26.3125 82.8281 26.3125C82.0781 26.3125 81.3542 26.1042 80.6562 25.6875C79.9583 25.2604 79.3906 24.6458 78.9531 23.8438C78.5156 23.0312 78.2969 22.0833 78.2969 21C78.2969 19.2708 78.7292 17.9583 79.5938 17.0625C80.4583 16.1562 81.7135 15.7031 83.3594 15.7031ZM85.1406 21.6562C85.401 21.6042 85.7083 21.4583 86.0625 21.2188C86.4271 20.9792 86.75 20.6927 87.0312 20.3594C87.3125 20.026 87.4792 19.7083 87.5312 19.4062L87.4375 19.0312C86.8854 18.9583 86.2969 18.9219 85.6719 18.9219C85.1406 18.9219 84.776 18.9635 84.5781 19.0469C84.2448 19.4219 84.0781 19.8385 84.0781 20.2969C84.0781 20.6302 84.1615 20.9323 84.3281 21.2031C84.5052 21.474 84.776 21.625 85.1406 21.6562ZM96.0469 5.5625C95.8906 4.92708 95.7865 4.40104 95.7344 3.98438C95.6823 3.55729 95.6615 3.06771 95.6719 2.51562C95.8906 2.23438 96.2292 1.95312 96.6875 1.67188C97.1562 1.38021 97.6979 1.13542 98.3125 0.9375C98.9375 0.739583 99.5833 0.640625 100.25 0.640625C101.552 0.640625 102.552 0.96875 103.25 1.625C103.948 2.28125 104.297 3.25 104.297 4.53125C104.297 5.44792 104.219 6.92188 104.062 8.95312C103.906 10.9844 103.682 13.1458 103.391 15.4375C103.099 17.7188 102.766 19.7135 102.391 21.4219L102.422 21.4531L104.734 20.4844C105.547 21.1823 106.021 22.1094 106.156 23.2656C106.156 23.3385 105.922 23.6406 105.453 24.1719C104.984 24.6927 104.365 25.1823 103.594 25.6406C102.833 26.0885 101.958 26.3125 100.969 26.3125C99.9375 26.3125 99.099 26.026 98.4531 25.4531C97.8177 24.8802 97.5156 23.901 97.5469 22.5156L97.5781 19.7031C97.5885 17.0365 97.6146 14.6354 97.6562 12.5C97.7083 10.3646 97.8125 8.16146 97.9688 5.89062L96.0469 5.5625ZM108.547 16.2969C108.547 14.7865 108.578 13.2135 108.641 11.5781C108.693 9.85938 108.776 8.34375 108.891 7.03125H108.859L107.094 6.70312C106.979 6.19271 106.896 5.76042 106.844 5.40625C106.802 5.04167 106.781 4.66667 106.781 4.28125C106.781 4.01042 106.786 3.80208 106.797 3.65625C107.016 3.375 107.349 3.09375 107.797 2.8125C108.255 2.52083 108.786 2.27604 109.391 2.07812C109.995 1.88021 110.62 1.78125 111.266 1.78125C112.589 1.78125 113.573 2.11979 114.219 2.79688C114.865 3.47396 115.156 4.48438 115.094 5.82812L115.047 7.1875C115.005 9.46875 114.911 11.3229 114.766 12.75H120.078C120.109 10.6771 120.203 8.76562 120.359 7.01562H120.328L118.094 6.6875C117.979 6.17708 117.896 5.74479 117.844 5.39062C117.802 5.02604 117.781 4.65104 117.781 4.26562C117.781 3.99479 117.786 3.78646 117.797 3.64062C118.016 3.36979 118.391 3.08854 118.922 2.79688C119.453 2.50521 120.062 2.26042 120.75 2.0625C121.448 1.86458 122.135 1.76562 122.812 1.76562C124.135 1.76562 125.146 2.10938 125.844 2.79688C126.552 3.47396 126.906 4.47917 126.906 5.8125C126.906 9.54167 126.328 14.7656 125.172 21.4844L127.484 20.4844C128.276 21.1719 128.729 22.099 128.844 23.2656C128.844 23.3385 128.599 23.6406 128.109 24.1719C127.63 24.6927 127 25.1823 126.219 25.6406C125.448 26.0885 124.568 26.3125 123.578 26.3125C122.526 26.3125 121.656 26.0312 120.969 25.4688C120.292 24.9062 119.958 23.9219 119.969 22.5156V21.5C119.969 19.7708 120.005 18.3333 120.078 17.1875C119.839 17.2083 119.474 17.2188 118.984 17.2188C118.266 17.2188 117.208 17.1562 115.812 17.0312C115.146 16.9688 114.672 16.9271 114.391 16.9062C114.422 17.9583 114.5 19.0052 114.625 20.0469C114.75 21.0781 114.911 22.2448 115.109 23.5469C115.234 24.3698 115.323 24.9896 115.375 25.4062C114.948 25.6667 114.271 25.8802 113.344 26.0469C112.417 26.2135 111.63 26.2969 110.984 26.2969C110.661 26.2969 110.354 26.2708 110.062 26.2188C109.781 26.1667 109.469 26.0885 109.125 25.9844C108.74 23.5781 108.547 20.349 108.547 16.2969ZM130.047 16.7656C130.047 14.8802 130.349 13.2448 130.953 11.8594C131.557 10.474 132.484 9.40104 133.734 8.64062C134.984 7.86979 136.552 7.48438 138.438 7.48438C140.521 7.48438 142.156 7.875 143.344 8.65625C144.531 9.42708 145.359 10.5 145.828 11.875C146.307 13.25 146.547 14.9323 146.547 16.9219C146.547 18.724 146.229 20.3333 145.594 21.75C144.969 23.1562 144.021 24.2708 142.75 25.0938C141.49 25.9062 139.943 26.3125 138.109 26.3125C135.276 26.3125 133.224 25.4427 131.953 23.7031C130.682 21.9531 130.047 19.6406 130.047 16.7656ZM138.75 21.7344C139.281 21.7344 139.604 21.6927 139.719 21.6094C139.958 21.1927 140.141 20.6042 140.266 19.8438C140.391 19.0833 140.453 18.2604 140.453 17.375C140.453 16.5625 140.401 15.8021 140.297 15.0938C140.193 14.375 140.047 13.8125 139.859 13.4062C139.745 13.2708 139.516 13.1719 139.172 13.1094C138.828 13.0365 138.453 13 138.047 13C137.516 13 137.151 13.0573 136.953 13.1719C136.432 14.0677 136.172 15.3125 136.172 16.9062C136.172 17.6562 136.229 18.4219 136.344 19.2031C136.458 19.9844 136.604 20.6927 136.781 21.3281C136.906 21.4635 137.161 21.5677 137.547 21.6406C137.932 21.7031 138.333 21.7344 138.75 21.7344ZM148.5 12.5312C148.323 11.7708 148.208 11.2135 148.156 10.8594C148.104 10.5052 148.078 9.96875 148.078 9.25C148.693 8.66667 149.354 8.22917 150.062 7.9375C150.771 7.63542 151.568 7.48438 152.453 7.48438C155.141 7.48438 156.484 8.83333 156.484 11.5312C156.484 12.25 156.417 13.0833 156.281 14.0312C156.156 14.9792 155.974 16.1719 155.734 17.6094C155.703 17.7969 155.62 18.3021 155.484 19.125C155.349 19.9479 155.255 20.6354 155.203 21.1875C155.38 21.375 155.599 21.5052 155.859 21.5781C155.984 21.5781 156.271 21.3229 156.719 20.8125C157.177 20.2917 157.667 19.6615 158.188 18.9219C158.708 18.1823 159.135 17.5 159.469 16.875C159.552 15.3854 159.667 14.0156 159.812 12.7656L158.172 12.4375C158.036 11.9167 157.943 11.4583 157.891 11.0625C157.839 10.6667 157.812 10.2448 157.812 9.79688L157.828 9.35938C158.203 8.88021 158.766 8.44792 159.516 8.0625C160.266 7.67708 161.125 7.48438 162.094 7.48438C164.781 7.48438 166.125 8.83333 166.125 11.5312C166.125 12.625 165.943 14.0677 165.578 15.8594C165.214 17.6406 164.786 19.4427 164.297 21.2656L166.094 20.4844C166.396 20.8073 166.661 21.2031 166.891 21.6719C167.13 22.1302 167.281 22.6615 167.344 23.2656C167.198 23.5781 166.88 23.9792 166.391 24.4688C165.901 24.9479 165.302 25.375 164.594 25.75C163.885 26.125 163.146 26.3125 162.375 26.3125C161.51 26.3125 160.844 26.0573 160.375 25.5469C159.917 25.026 159.688 24.3646 159.688 23.5625C159.688 23.3542 159.74 22.9271 159.844 22.2812C159.958 21.6354 160.052 21.1875 160.125 20.9375L159.688 20.7969C159.167 22.6198 158.448 23.9948 157.531 24.9219C156.625 25.849 155.589 26.3125 154.422 26.3125C152.745 26.3125 151.562 25.7604 150.875 24.6562C150.188 23.5417 149.844 22.1615 149.844 20.5156C149.844 17.4219 149.948 14.8385 150.156 12.7656L148.5 12.5312ZM170.141 20.4844C171.057 20.849 171.792 21.1302 172.344 21.3281C172.896 21.526 173.5 21.6979 174.156 21.8438C174.823 21.9896 175.484 22.0625 176.141 22.0625C176.432 22.0625 176.641 22.0365 176.766 21.9844C176.797 21.9427 176.823 21.8802 176.844 21.7969C176.875 21.7031 176.891 21.6094 176.891 21.5156C176.891 21.3073 176.771 21.1354 176.531 21C176.156 20.7917 175.49 20.4635 174.531 20.0156C173.219 19.3906 172.177 18.8333 171.406 18.3438C170.646 17.8542 170 17.2031 169.469 16.3906C168.948 15.5781 168.688 14.5573 168.688 13.3281C168.688 11.5677 169.214 10.1562 170.266 9.09375C171.318 8.02083 172.984 7.48438 175.266 7.48438C177.984 7.48438 180.099 7.83854 181.609 8.54688C181.682 8.84896 181.719 9.22917 181.719 9.6875C181.719 10.5625 181.583 11.4583 181.312 12.375C181.042 13.2812 180.688 13.9531 180.25 14.3906C179.656 14.1927 178.818 13.875 177.734 13.4375C176.943 13.125 176.312 12.8854 175.844 12.7188C175.385 12.5417 174.964 12.4167 174.578 12.3438C174.37 12.3958 174.203 12.5208 174.078 12.7188C173.953 12.9062 173.891 13.1302 173.891 13.3906C173.891 13.6198 173.958 13.8125 174.094 13.9688C174.229 14.125 174.38 14.25 174.547 14.3438C174.724 14.4271 174.974 14.5417 175.297 14.6875C175.464 14.7604 175.62 14.8281 175.766 14.8906C175.911 14.9427 176.047 14.9948 176.172 15.0469C176.984 15.3906 177.625 15.6719 178.094 15.8906C178.562 16.1094 179.016 16.3698 179.453 16.6719C180.255 17.224 180.885 17.8542 181.344 18.5625C181.802 19.2708 182.031 20.0469 182.031 20.8906C182.031 22.0573 181.698 23.0677 181.031 23.9219C180.375 24.7656 179.531 25.3802 178.5 25.7656C177.958 25.9635 177.365 26.1042 176.719 26.1875C176.083 26.2812 175.339 26.3281 174.484 26.3281C173.474 26.3281 172.432 26.1354 171.359 25.75C170.297 25.3542 169.484 24.6979 168.922 23.7812C168.932 23.1458 169.016 22.5938 169.172 22.125C169.339 21.6458 169.661 21.099 170.141 20.4844ZM183.766 16.9219C183.766 15.1198 184.068 13.5104 184.672 12.0938C185.276 10.6771 186.208 9.55729 187.469 8.73438C188.74 7.90104 190.323 7.48438 192.219 7.48438C193.208 7.48438 194.198 7.60417 195.188 7.84375C196.177 8.07292 197.016 8.45833 197.703 9C198.339 9.51042 198.797 10.1875 199.078 11.0312C199.37 11.8646 199.516 12.7917 199.516 13.8125C199.516 14.4896 199.458 15.1823 199.344 15.8906C199.219 16.099 198.974 16.375 198.609 16.7188C198.245 17.0521 197.818 17.3802 197.328 17.7031C196.839 18.026 196.365 18.276 195.906 18.4531C195.469 18.4844 195.016 18.5 194.547 18.5C193.724 18.5 192.891 18.4635 192.047 18.3906C191.203 18.3177 190.464 18.2344 189.828 18.1406C189.911 19.026 190.182 19.7969 190.641 20.4531C191.099 21.1094 191.828 21.4375 192.828 21.4375C192.922 21.4375 193.073 21.4271 193.281 21.4062C193.917 21.3438 194.656 21.1771 195.5 20.9062C196.354 20.625 197.203 20.3021 198.047 19.9375C198.443 20.3333 198.734 20.7292 198.922 21.125C199.109 21.5208 199.24 22.0885 199.312 22.8281C198.99 23.2031 198.464 23.6615 197.734 24.2031C197.016 24.7448 196.135 25.2344 195.094 25.6719C194.052 26.099 192.964 26.3125 191.828 26.3125C190.12 26.3125 188.656 25.901 187.438 25.0781C186.229 24.2448 185.312 23.1198 184.688 21.7031C184.073 20.276 183.766 18.6823 183.766 16.9219ZM193.828 13.3281C193.682 13.1719 193.438 13.0521 193.094 12.9688C192.75 12.875 192.391 12.8281 192.016 12.8281C191.714 12.8281 191.406 12.8542 191.094 12.9062C190.792 12.9583 190.609 13.0156 190.547 13.0781C190.193 13.776 189.969 14.5677 189.875 15.4531L194.047 15.0469L193.828 13.3281Z" fill="#5392F9 "/>
</g>
<defs>
<filter id="filter0_d_101_2" x="0.1875" y="0.640625" width="203.328" height="33.6875" filterUnits="userSpaceOnUse" color-interpolation-filters="sRGB">
<feFlood flood-opacity="0" result="BackgroundImageFix"/>
<feColorMatrix in="SourceAlpha" type="matrix" values="0 0 0 0 0 0 0 0 0 0 0 0 0 0 0 0 0 0 127 0" result="hardAlpha"/>
<feOffset dy="4"/>
<feGaussianBlur stdDeviation="2"/>
<feComposite in2="hardAlpha" operator="out"/>
<feColorMatrix type="matrix" values="0 0 0 0 0 0 0 0 0 0 0 0 0 0 0 0 0 0 0.25 0"/>
<feBlend mode="normal" in2="BackgroundImageFix" result="effect1_dropShadow_101_2"/>
<feBlend mode="normal" in="SourceGraphic" in2="effect1_dropShadow_101_2" result="shape"/>
</filter>
</defs>
</svg>
