<svg width="138" height="21" viewBox="0 0 138 21" fill="none" xmlns="http://www.w3.org/2000/svg">
<path d="M0 19.7097H7.00006C13.9698 19.7097 17.6062 15.8681 17.6062 10.1203C17.6062 4.37247 13.9698 0.530824 7.00006 0.530824H0V19.7097ZM4.90913 15.3109V4.92965H7.00006C10.9698 4.92965 12.6365 6.92379 12.6365 10.1203C12.6365 13.3167 10.9698 15.3109 7.00006 15.3109H4.90913Z" fill="#003E49"/>
<path d="M28.4742 20.0909C33.2015 20.0909 36.5349 16.8651 36.5349 12.4663C36.5349 8.06748 33.2015 4.84168 28.4742 4.84168C23.7469 4.84168 20.4135 8.06748 20.4135 12.4663C20.4135 16.8651 23.7469 20.0909 28.4742 20.0909ZM28.4742 15.9854C26.4136 15.9854 25.0196 14.5484 25.0196 12.4663C25.0196 10.3842 26.4136 8.94725 28.4742 8.94725C30.5348 8.94725 31.9288 10.3842 31.9288 12.4663C31.9288 14.5484 30.5348 15.9854 28.4742 15.9854Z" fill="#003E49"/>
<path d="M46.0757 20.0909C49.803 20.0909 52.3485 18.1261 52.3485 13.9912V13.5514H47.803V13.9912C47.803 15.5162 47.0757 15.9854 46.0757 15.9854C45.0757 15.9854 44.3484 15.5162 44.3484 13.9912V9.18185H51.4394V5.22291H44.3484V0.0909424H39.8029V13.9912C39.8029 18.1261 42.3484 20.0909 46.0757 20.0909Z" fill="#003E49"/>
<path d="M60.1767 19.7097H65.0858V4.92965H70.5101V0.530824H54.7827V4.92965H60.1767V19.7097Z" fill="#003E49"/>
<path d="M72.2203 19.7097H76.7658V11.4692C76.7658 9.53376 77.6749 8.94725 78.9476 8.94725C80.2204 8.94725 81.1295 9.53376 81.1295 11.4692V11.5865H85.675V11.4986C85.6447 6.92379 82.9477 4.84168 78.9476 4.84168C74.9476 4.84168 72.2203 6.95311 72.2203 11.4692V19.7097Z" fill="#003E49"/>
<path d="M95.8836 20.0909C99.6109 20.0909 102.459 18.0968 103.429 15.1056H98.7321C98.1564 15.8974 97.1867 16.1613 95.8836 16.1613C94.2473 16.1613 92.9139 15.3989 92.5503 13.698H103.853V12.4663C103.853 8.06748 100.611 4.84168 95.8836 4.84168C91.1563 4.84168 87.823 8.06748 87.823 12.4663C87.823 16.8651 91.1563 20.0909 95.8836 20.0909ZM92.6412 10.9121C93.0957 9.44578 94.3079 8.77129 95.8836 8.77129C97.4594 8.77129 98.6715 9.41646 99.1867 10.9121H92.6412Z" fill="#003E49"/>
<path d="M114.578 20.0909C118.305 20.0909 121.154 18.0968 122.124 15.1056H117.427C116.851 15.8974 115.881 16.1613 114.578 16.1613C112.942 16.1613 111.608 15.3989 111.245 13.698H122.548V12.4663C122.548 8.06748 119.305 4.84168 114.578 4.84168C109.851 4.84168 106.517 8.06748 106.517 12.4663C106.517 16.8651 109.851 20.0909 114.578 20.0909ZM111.336 10.9121C111.79 9.44578 113.002 8.77129 114.578 8.77129C116.154 8.77129 117.366 9.41646 117.881 10.9121H111.336Z" fill="#003E49"/>
<path d="M131.606 20.0909C135.455 20.0909 138 18.0968 138 15.1056C138 11.6745 134.697 11.1173 132.545 10.8241C131.151 10.6188 130.061 10.5015 130.061 9.62173C130.061 9.03522 130.515 8.47804 131.636 8.47804C132.545 8.47804 133.151 8.85927 133.273 9.53376H137.697C137.606 6.92379 135.303 4.84168 131.576 4.84168C127.848 4.84168 125.454 6.89446 125.454 9.82701C125.454 13.3167 128.848 13.8153 130.909 14.1085C132.303 14.3138 133.394 14.4018 133.394 15.3695C133.394 15.9854 132.939 16.4546 131.545 16.4546C130.303 16.4546 129.727 16.0733 129.697 15.3109H125.212C125.273 18.0968 127.757 20.0909 131.606 20.0909Z" fill="#003E49"/>
</svg>
