<svg width="111" height="16" viewBox="0 0 111 16" fill="none" xmlns="http://www.w3.org/2000/svg">
<path d="M0.5 15.695H6.07976C11.6354 15.695 14.5339 12.6217 14.5339 8.02346C14.5339 3.42522 11.6354 0.351906 6.07976 0.351906H0.5V15.695ZM4.41308 12.176V3.87097H6.07976C9.24404 3.87097 10.5725 5.46628 10.5725 8.02346C10.5725 10.5806 9.24404 12.176 6.07976 12.176H4.41308Z" fill="#003E49"/>
<path d="M23.1968 16C26.965 16 29.622 13.4194 29.622 9.90029C29.622 6.38123 26.965 3.80059 23.1968 3.80059C19.4287 3.80059 16.7717 6.38123 16.7717 9.90029C16.7717 13.4194 19.4287 16 23.1968 16ZM23.1968 12.7155C21.5543 12.7155 20.4432 11.566 20.4432 9.90029C20.4432 8.2346 21.5543 7.08504 23.1968 7.08504C24.8394 7.08504 25.9505 8.2346 25.9505 9.90029C25.9505 11.566 24.8394 12.7155 23.1968 12.7155Z" fill="#003E49"/>
<path d="M37.227 16C40.198 16 42.227 14.4282 42.227 11.1202V10.7683H38.6038V11.1202C38.6038 12.3402 38.0241 12.7155 37.227 12.7155C36.4299 12.7155 35.8502 12.3402 35.8502 11.1202V7.27273H41.5024V4.10557H35.8502V0H32.2269V11.1202C32.2269 14.4282 34.256 16 37.227 16Z" fill="#003E49"/>
<path d="M48.4669 15.695H52.38V3.87097H56.7037V0.351906H44.1673V3.87097H48.4669V15.695Z" fill="#003E49"/>
<path d="M58.0669 15.695H61.6901V9.10264C61.6901 7.55425 62.4148 7.08504 63.4293 7.08504C64.4438 7.08504 65.1684 7.55425 65.1684 9.10264V9.19648H68.7916V9.1261C68.7675 5.46628 66.6177 3.80059 63.4293 3.80059C60.2408 3.80059 58.0669 5.48974 58.0669 9.10264V15.695Z" fill="#003E49"/>
<path d="M76.929 16C79.9 16 82.1706 14.4047 82.9435 12.0117H79.1995C78.7406 12.6452 77.9676 12.8563 76.929 12.8563C75.6246 12.8563 74.5618 12.2463 74.272 10.8856H83.2817V9.90029C83.2817 6.38123 80.6971 3.80059 76.929 3.80059C73.1608 3.80059 70.5038 6.38123 70.5038 9.90029C70.5038 13.4194 73.1608 16 76.929 16ZM74.3444 8.65689C74.7067 7.48387 75.6729 6.94428 76.929 6.94428C78.185 6.94428 79.1512 7.46041 79.5619 8.65689H74.3444Z" fill="#003E49"/>
<path d="M91.8304 16C94.8015 16 97.072 14.4047 97.845 12.0117H94.101C93.642 12.6452 92.8691 12.8563 91.8304 12.8563C90.5261 12.8563 89.4632 12.2463 89.1734 10.8856H98.1831V9.90029C98.1831 6.38123 95.5986 3.80059 91.8304 3.80059C88.0623 3.80059 85.4052 6.38123 85.4052 9.90029C85.4052 13.4194 88.0623 16 91.8304 16ZM89.2458 8.65689C89.6082 7.48387 90.5744 6.94428 91.8304 6.94428C93.0865 6.94428 94.0527 7.46041 94.4633 8.65689H89.2458Z" fill="#003E49"/>
<path d="M105.403 16C108.471 16 110.5 14.4047 110.5 12.0117C110.5 9.26686 107.867 8.82111 106.152 8.58651C105.041 8.42229 104.171 8.32845 104.171 7.62463C104.171 7.15543 104.534 6.70968 105.427 6.70968C106.152 6.70968 106.635 7.01466 106.732 7.55425H110.258C110.186 5.46628 108.35 3.80059 105.379 3.80059C102.408 3.80059 100.5 5.44282 100.5 7.78886C100.5 10.5806 103.205 10.9795 104.848 11.2141C105.959 11.3783 106.828 11.4487 106.828 12.2229C106.828 12.7155 106.466 13.0909 105.355 13.0909C104.365 13.0909 103.906 12.7859 103.882 12.176H100.307C100.355 14.4047 102.336 16 105.403 16Z" fill="#003E49"/>
</svg>
