<svg xmlns="http://www.w3.org/2000/svg" width="32" height="32" viewBox="0 0 32 32" fill="none">
	<path
		d="M20.7073 25.2931C20.8002 25.386 20.8739 25.4963 20.9242 25.6177C20.9745 25.7391 21.0004 25.8692 21.0004 26.0006C21.0004 26.132 20.9745 26.2621 20.9242 26.3835C20.8739 26.5048 20.8002 26.6151 20.7073 26.7081C20.6144 26.801 20.5041 26.8747 20.3827 26.9249C20.2613 26.9752 20.1312 27.0011 19.9998 27.0011C19.8684 27.0011 19.7383 26.9752 19.6169 26.9249C19.4955 26.8747 19.3852 26.801 19.2923 26.7081L9.29231 16.7081C9.19933 16.6152 9.12557 16.5049 9.07525 16.3835C9.02493 16.2621 8.99902 16.132 8.99902 16.0006C8.99902 15.8691 9.02493 15.739 9.07525 15.6176C9.12557 15.4962 9.19933 15.3859 9.29231 15.2931L19.2923 5.29306C19.4799 5.10542 19.7344 5 19.9998 5C20.2652 5 20.5197 5.10542 20.7073 5.29306C20.895 5.4807 21.0004 5.73519 21.0004 6.00056C21.0004 6.26592 20.895 6.52042 20.7073 6.70806L11.4136 16.0006L20.7073 25.2931Z"
		fill="white" />
</svg>