<svg xmlns="http://www.w3.org/2000/svg" width="32" height="32" viewBox="0 0 32 32" fill="none">
	<path
		d="M27.7255 21.9925C27.0318 20.7975 26.0005 17.4163 26.0005 13C26.0005 10.3478 24.9469 7.8043 23.0716 5.92893C21.1962 4.05357 18.6527 3 16.0005 3C13.3483 3 10.8048 4.05357 8.92944 5.92893C7.05407 7.8043 6.0005 10.3478 6.0005 13C6.0005 17.4175 4.968 20.7975 4.27425 21.9925C4.09709 22.2963 4.00317 22.6415 4.00196 22.9931C4.00076 23.3448 4.09231 23.6906 4.26738 23.9956C4.44245 24.3006 4.69485 24.5541 4.99914 24.7304C5.30342 24.9068 5.64882 24.9997 6.0005 25H11.1018C11.3325 26.1289 11.946 27.1436 12.8387 27.8722C13.7313 28.6009 14.8482 28.9989 16.0005 28.9989C17.1528 28.9989 18.2697 28.6009 19.1623 27.8722C20.055 27.1436 20.6685 26.1289 20.8993 25H26.0005C26.3521 24.9995 26.6973 24.9064 27.0014 24.73C27.3055 24.5535 27.5578 24.3 27.7327 23.9951C27.9076 23.6901 27.9991 23.3444 27.9978 22.9928C27.9965 22.6412 27.9026 22.2962 27.7255 21.9925ZM16.0005 27C15.3803 26.9998 14.7754 26.8074 14.269 26.4492C13.7626 26.0911 13.3797 25.5848 13.173 25H18.828C18.6213 25.5848 18.2384 26.0911 17.732 26.4492C17.2257 26.8074 16.6207 26.9998 16.0005 27ZM6.0005 23C6.963 21.345 8.0005 17.51 8.0005 13C8.0005 10.8783 8.84336 8.84344 10.3436 7.34315C11.8439 5.84285 13.8788 5 16.0005 5C18.1222 5 20.1571 5.84285 21.6574 7.34315C23.1576 8.84344 24.0005 10.8783 24.0005 13C24.0005 17.5063 25.0355 21.3412 26.0005 23H6.0005Z"
		fill="white" />
</svg>