<svg xmlns="http://www.w3.org/2000/svg" width="14" height="14" viewBox="0 0 14 14" fill="none">
	<path
		d="M10.0893 7.46403L5.7143 11.839C5.59101 11.9623 5.4238 12.0316 5.24945 12.0316C5.0751 12.0316 4.90789 11.9623 4.78461 11.839C4.66133 11.7157 4.59206 11.5485 4.59206 11.3742C4.59206 11.1998 4.66133 11.0326 4.78461 10.9093L8.69531 6.99973L4.7857 3.08903C4.72466 3.02798 4.67624 2.95551 4.6432 2.87576C4.61016 2.796 4.59316 2.71051 4.59316 2.62419C4.59316 2.53786 4.61016 2.45237 4.6432 2.37261C4.67624 2.29286 4.72466 2.22039 4.7857 2.15934C4.84675 2.0983 4.91922 2.04987 4.99898 2.01684C5.07873 1.9838 5.16422 1.9668 5.25055 1.9668C5.33688 1.9668 5.42236 1.9838 5.50212 2.01684C5.58188 2.04987 5.65435 2.0983 5.71539 2.15934L10.0904 6.53434C10.1515 6.59538 10.2 6.66788 10.233 6.74769C10.266 6.8275 10.283 6.91304 10.2829 6.99941C10.2828 7.08578 10.2656 7.17129 10.2324 7.25102C10.1992 7.33074 10.1505 7.40313 10.0893 7.46403Z"
		fill="white" />
</svg>